<svg width="1140" height="305" viewBox="0 0 1140 305" fill="none" xmlns="http://www.w3.org/2000/svg">
<mask id="mask0" mask-type="alpha" maskUnits="userSpaceOnUse" x="29" y="0" width="315" height="190">
<path d="M297.99 189.4C290.435 186.472 283.173 185.008 275.852 185.008C268.532 185.008 261.328 186.472 253.715 189.4L253.422 188.58C261.094 185.593 268.415 184.129 275.852 184.129C283.29 184.129 290.611 185.593 298.283 188.58L297.99 189.4Z" fill="#00A859"/>
<path d="M118.546 189.4C110.991 186.472 103.729 185.008 96.4086 185.008C89.088 185.008 81.8845 186.472 74.271 189.4L73.9781 188.58C81.6502 185.593 88.9709 184.129 96.4086 184.129C103.846 184.129 111.167 185.593 118.839 188.58L118.546 189.4Z" fill="#00A859"/>
<path d="M310.347 189.342C301.094 184.246 289.732 179.093 275.911 179.093C262.09 179.093 250.728 184.305 241.475 189.342L241.065 188.58C250.435 183.426 261.914 178.214 275.911 178.214C289.908 178.214 301.387 183.426 310.757 188.58L310.347 189.342Z" fill="#00A859"/>
<path d="M130.903 189.342C121.65 184.246 110.288 179.093 96.467 179.093C82.6457 179.093 71.284 184.305 62.0307 189.342L61.6207 188.58C70.9912 183.426 82.47 178.214 96.467 178.214C110.464 178.214 121.943 183.426 131.313 188.58L130.903 189.342Z" fill="#00A859"/>
<path d="M320.538 189.341C307.126 181.377 293.305 173.177 275.911 173.177C258.517 173.177 244.696 181.377 231.284 189.341L230.816 188.58C244.286 180.557 258.283 172.299 275.911 172.299C293.539 172.299 307.478 180.557 321.006 188.58L320.538 189.341Z" fill="#00A859"/>
<path d="M141.094 189.341C127.682 181.377 113.861 173.177 96.4671 173.177C79.0732 173.177 65.2518 181.377 51.8403 189.341L51.3718 188.58C64.8418 180.557 78.8389 172.299 96.4671 172.299C114.095 172.299 128.034 180.557 141.562 188.58L141.094 189.341Z" fill="#00A859"/>
<path d="M330.728 189.341C327.273 187.467 323.817 185.418 320.538 183.426C307.126 175.52 293.305 167.321 275.911 167.321C258.517 167.321 244.637 175.52 231.284 183.485C227.946 185.476 224.491 187.526 221.035 189.4L220.625 188.639C224.081 186.765 227.477 184.715 230.816 182.782C244.286 174.759 258.283 166.501 275.911 166.501C293.539 166.501 307.478 174.759 321.006 182.782C324.344 184.773 327.741 186.765 331.197 188.639L330.728 189.341Z" fill="#00A859"/>
<path d="M151.284 189.341C147.829 187.467 144.373 185.418 141.035 183.426C127.682 175.52 113.861 167.321 96.4671 167.321C79.0732 167.321 65.1933 175.52 51.8404 183.485C48.5022 185.476 45.0468 187.526 41.5915 189.4L41.1815 188.639C44.6369 186.765 48.0337 184.715 51.3719 182.782C64.8419 174.759 78.839 166.501 96.4671 166.501C114.095 166.501 128.034 174.759 141.562 182.782C144.901 184.773 148.297 186.765 151.753 188.639L151.284 189.341Z" fill="#00A859"/>
<path d="M343.144 189.4C335.179 186.296 327.741 181.845 320.479 177.57C307.068 169.605 293.246 161.406 275.853 161.406C258.459 161.406 244.579 169.605 231.226 177.57C224.022 181.845 216.526 186.296 208.561 189.4L208.268 188.58C216.174 185.476 223.612 181.084 230.816 176.808C244.286 168.785 258.283 160.527 275.911 160.527C293.539 160.527 307.478 168.785 321.006 176.808C328.21 181.084 335.648 185.476 343.554 188.58L343.144 189.4Z" fill="#00A859"/>
<path d="M163.759 189.4C155.794 186.296 148.356 181.845 141.094 177.57C127.682 169.605 113.861 161.406 96.4671 161.406C79.0732 161.406 65.2518 169.605 51.8404 177.57C44.6368 181.845 37.2576 186.237 29.3513 189.341L29.0585 188.522C36.9062 185.418 44.2854 181.084 51.4304 176.808C64.9004 168.785 78.8975 160.527 96.5256 160.527C114.154 160.527 128.092 168.785 141.621 176.808C148.824 181.084 156.262 185.476 164.169 188.58L163.759 189.4Z" fill="#00A859"/>
<path d="M186.189 187.936C168.561 187.936 154.622 179.678 141.094 171.655C127.682 163.69 113.861 155.491 96.4671 155.491C79.0732 155.491 65.1932 163.69 51.8404 171.655C44.6368 175.93 37.2576 180.322 29.3513 183.426L29.0585 182.606C36.9062 179.503 44.2854 175.169 51.4304 170.893C64.9004 162.87 78.8975 154.612 96.5256 154.612C114.154 154.612 128.092 162.87 141.621 170.893C155.032 178.858 168.854 187.057 186.248 187.057C203.641 187.057 217.521 178.858 230.874 170.893C244.344 162.87 258.341 154.612 275.97 154.612V155.491C258.576 155.491 244.696 163.69 231.343 171.655C217.756 179.678 203.817 187.936 186.189 187.936Z" fill="#00A859"/>
<path d="M186.189 182.079C168.561 182.079 154.622 173.822 141.094 165.798C127.682 157.833 113.861 149.634 96.4671 149.634C79.0732 149.634 65.2518 157.833 51.8404 165.798C44.6368 170.073 37.2576 174.466 29.3513 177.57L29.0585 176.75C36.9062 173.646 44.2854 169.312 51.4304 165.037C64.9004 157.013 78.8975 148.756 96.5256 148.756C114.154 148.756 128.092 157.013 141.621 165.037C155.032 173.002 168.854 181.201 186.248 181.201C203.641 181.201 217.521 173.002 230.874 165.037C244.344 157.013 258.341 148.756 275.97 148.756V149.634C258.576 149.634 244.696 157.833 231.343 165.798C217.756 173.763 203.817 182.079 186.189 182.079Z" fill="#00A859"/>
<path d="M186.189 176.164C168.561 176.164 154.622 167.907 141.094 159.883C127.682 151.918 113.861 143.719 96.4671 143.719C79.0732 143.719 65.2518 151.918 51.8404 159.883C44.6368 164.158 37.2576 168.551 29.3513 171.655L29.0585 170.835C36.9062 167.731 44.2854 163.397 51.4304 159.122C64.9004 151.098 78.8975 142.841 96.5256 142.841C114.154 142.841 128.092 151.098 141.621 159.122C155.032 167.087 168.854 175.286 186.248 175.286C203.641 175.286 217.521 167.087 230.874 159.122C244.344 151.098 258.341 142.841 275.97 142.841V143.719C258.576 143.719 244.696 151.918 231.343 159.883C217.756 167.907 203.817 176.164 186.189 176.164Z" fill="#00A859"/>
<path d="M186.189 170.249C168.561 170.249 154.622 161.991 141.094 153.968C127.682 146.003 113.861 137.804 96.4672 137.804C79.0733 137.804 65.1933 146.003 51.8404 153.968C44.6369 158.243 37.1991 162.636 29.2928 165.74L29 164.92C36.8477 161.816 44.227 157.482 51.3719 153.207C64.8419 145.183 78.839 136.926 96.4672 136.926C114.095 136.926 128.034 145.183 141.562 153.207C154.974 161.172 168.795 169.371 186.189 169.371C203.583 169.371 217.463 161.172 230.816 153.207C244.286 145.183 258.283 136.926 275.911 136.926V137.804C258.517 137.804 244.637 146.003 231.284 153.968C217.756 161.991 203.817 170.249 186.189 170.249Z" fill="#00A859"/>
<path d="M186.189 164.393C168.561 164.393 154.622 156.135 141.094 148.112C127.682 140.147 113.861 131.948 96.4672 131.948C79.0733 131.948 65.2519 140.147 51.8404 148.112C44.6369 152.387 37.1991 156.779 29.2928 159.883L29 159.063C36.8477 155.959 44.227 151.625 51.3719 147.35C64.8419 139.327 78.839 131.069 96.4672 131.069C114.095 131.069 128.034 139.327 141.562 147.35C154.974 155.315 168.795 163.514 186.189 163.514C203.583 163.514 217.463 155.315 230.816 147.35C244.286 139.327 258.283 131.069 275.911 131.069V131.948C258.517 131.948 244.637 140.147 231.284 148.112C217.756 156.135 203.817 164.393 186.189 164.393Z" fill="#00A859"/>
<path d="M186.189 158.478C168.561 158.478 154.622 150.22 141.094 142.196C127.682 134.232 113.861 126.032 96.4671 126.032C79.0732 126.032 65.1932 134.232 51.8404 142.196C44.6368 146.472 37.2576 150.864 29.3513 153.968L29.0585 153.148C36.9062 150.044 44.2854 145.71 51.4304 141.435C64.9004 133.412 78.8975 125.154 96.5256 125.154C114.154 125.154 128.092 133.412 141.621 141.435C155.032 149.4 168.854 157.599 186.248 157.599C203.641 157.599 217.521 149.4 230.874 141.435C244.344 133.412 258.341 125.154 275.97 125.154V126.032C258.576 126.032 244.696 134.232 231.343 142.196C217.756 150.22 203.817 158.478 186.189 158.478Z" fill="#00A859"/>
<path d="M186.189 152.621C168.561 152.621 154.622 144.363 141.094 136.34C127.682 128.375 113.861 120.176 96.4671 120.176C79.0732 120.176 65.2518 128.375 51.8404 136.34C44.6368 140.615 37.2576 145.008 29.3513 148.111L29.0585 147.292C36.9062 144.188 44.2854 139.854 51.4304 135.579C64.9004 127.555 78.8975 119.297 96.5256 119.297C114.154 119.297 128.092 127.555 141.621 135.579C155.032 143.543 168.854 151.743 186.248 151.743C203.641 151.743 217.521 143.543 230.874 135.579C244.344 127.555 258.341 119.297 275.97 119.297V120.176C258.576 120.176 244.696 128.375 231.343 136.34C217.756 144.305 203.817 152.621 186.189 152.621Z" fill="#00A859"/>
<path d="M186.189 146.706C168.561 146.706 154.622 138.448 141.094 130.425C127.682 122.46 113.861 114.261 96.4671 114.261C79.0732 114.261 65.2518 122.46 51.8404 130.425C44.6368 134.7 37.2576 139.092 29.3513 142.196L29.0585 141.377C36.9062 138.273 44.2854 133.939 51.4304 129.663C64.9004 121.64 78.8975 113.382 96.5256 113.382C114.154 113.382 128.092 121.64 141.621 129.663C155.032 137.628 168.854 145.827 186.248 145.827C203.641 145.827 217.521 137.628 230.874 129.663C244.344 121.64 258.341 113.382 275.97 113.382V114.261C258.576 114.261 244.696 122.46 231.343 130.425C217.756 138.448 203.817 146.706 186.189 146.706Z" fill="#00A859"/>
<path d="M186.189 140.791C168.561 140.791 154.622 132.533 141.094 124.51C127.682 116.545 113.861 108.346 96.4672 108.346C79.0733 108.346 65.2519 116.545 51.8404 124.51C44.6369 128.785 37.1991 133.177 29.2928 136.281L29 135.461C36.8477 132.358 44.227 128.024 51.3719 123.748C64.8419 115.725 78.839 107.467 96.4672 107.467C114.095 107.467 128.034 115.725 141.562 123.748C154.974 131.713 168.795 139.912 186.189 139.912C203.583 139.912 217.463 131.713 230.816 123.748C244.286 115.725 258.283 107.467 275.911 107.467V108.346C258.517 108.346 244.637 116.545 231.284 124.51C217.756 132.533 203.817 140.791 186.189 140.791Z" fill="#00A859"/>
<path d="M186.189 134.934C168.561 134.934 154.622 126.677 141.094 118.653C127.682 110.688 113.861 102.489 96.4672 102.489C79.0733 102.489 65.2519 110.688 51.8404 118.653C44.6369 122.928 37.1991 127.321 29.2928 130.425L29 129.605C36.8477 126.501 44.227 122.167 51.3719 117.892C64.8419 109.868 78.839 101.611 96.4672 101.611C114.095 101.611 128.034 109.868 141.562 117.892C154.974 125.857 168.795 134.056 186.189 134.056C203.583 134.056 217.463 125.857 230.816 117.892C244.286 109.868 258.283 101.611 275.911 101.611V102.489C258.517 102.489 244.637 110.688 231.284 118.653C217.756 126.618 203.817 134.934 186.189 134.934Z" fill="#00A859"/>
<path d="M186.189 129.019C168.561 129.019 154.622 120.762 141.094 112.738C127.682 104.773 113.861 96.5742 96.4671 96.5742C79.0732 96.5742 65.2518 104.773 51.8404 112.738C44.6368 117.013 37.2576 121.406 29.3513 124.51L29.0585 123.69C36.9062 120.586 44.2854 116.252 51.4304 111.977C64.9004 103.953 78.8975 95.6957 96.5256 95.6957C114.154 95.6957 128.092 103.953 141.621 111.977C155.032 119.942 168.854 128.141 186.248 128.141C203.641 128.141 217.521 119.942 230.874 111.977C244.344 103.953 258.341 95.6957 275.97 95.6957V96.5742C258.576 96.5742 244.696 104.773 231.343 112.738C217.756 120.762 203.817 129.019 186.189 129.019Z" fill="#00A859"/>
<path d="M186.189 123.104C168.561 123.104 154.622 114.846 141.094 106.823C127.682 98.8581 113.861 90.659 96.4672 90.659C79.0733 90.659 65.2519 98.8581 51.8404 106.823C44.6369 111.098 37.1991 115.491 29.2928 118.595L29 117.775C36.8477 114.671 44.227 110.337 51.3719 106.062C64.8419 98.0382 78.839 89.7805 96.4672 89.7805C114.095 89.7805 128.034 98.0382 141.562 106.062C154.974 114.027 168.795 122.226 186.189 122.226C203.583 122.226 217.463 114.027 230.816 106.062C244.286 98.0382 258.283 89.7805 275.911 89.7805V90.659C258.517 90.659 244.637 98.8581 231.284 106.823C217.756 114.846 203.817 123.104 186.189 123.104Z" fill="#00A859"/>
<path d="M186.189 117.248C168.561 117.248 154.622 108.99 141.094 100.967C127.682 93.0017 113.861 84.8026 96.4672 84.8026C79.0733 84.8026 65.2519 93.0017 51.8404 100.967C44.6369 105.242 37.1991 109.634 29.2928 112.738L29 111.918C36.8477 108.814 44.227 104.48 51.3719 100.205C64.8419 92.1818 78.839 83.9241 96.4672 83.9241C114.095 83.9241 128.034 92.1818 141.562 100.205C154.974 108.17 168.795 116.369 186.189 116.369C203.583 116.369 217.463 108.17 230.816 100.205C244.286 92.1818 258.283 83.9241 275.911 83.9241V84.8026C258.517 84.8026 244.637 93.0017 231.284 100.967C217.756 108.99 203.817 117.248 186.189 117.248Z" fill="#00A859"/>
<path d="M186.189 111.333C168.561 111.333 154.622 103.075 141.094 95.0514C127.682 87.0865 113.861 78.8874 96.4671 78.8874C79.0732 78.8874 65.1932 87.0865 51.8404 95.0514C44.6368 99.3267 37.2576 103.719 29.3513 106.823L29.0585 106.003C36.9062 102.899 44.2854 98.5653 51.4304 94.2901C64.9004 86.2666 78.8975 78.0089 96.5256 78.0089C114.154 78.0089 128.092 86.2666 141.621 94.2901C155.032 102.255 168.854 110.454 186.248 110.454C203.641 110.454 217.521 102.255 230.874 94.2901C244.344 86.2666 258.341 78.0089 275.97 78.0089V78.8874C258.576 78.8874 244.696 87.0865 231.343 95.0514C217.756 103.075 203.817 111.333 186.189 111.333Z" fill="#00A859"/>
<path d="M186.189 105.476C168.561 105.476 154.622 97.2183 141.094 89.1948C127.682 81.23 113.861 73.0308 96.4671 73.0308C79.0732 73.0308 65.1932 81.23 51.8404 89.1948C44.6368 93.4701 37.2576 97.8625 29.3513 100.966L29.0585 100.147C36.9062 97.0426 44.2854 92.7087 51.4304 88.4335C64.9004 80.41 78.8975 72.1523 96.5256 72.1523C114.154 72.1523 128.092 80.41 141.621 88.4335C155.032 96.3984 168.854 104.597 186.248 104.597C203.641 104.597 217.521 96.3984 230.874 88.4335C244.344 80.41 258.341 72.1523 275.97 72.1523V73.0308C258.576 73.0308 244.696 81.23 231.343 89.1948C217.756 97.1597 203.817 105.476 186.189 105.476Z" fill="#00A859"/>
<path d="M186.189 99.5608C168.561 99.5608 154.622 91.3031 141.094 83.2797C127.682 75.3734 113.861 67.1743 96.4671 67.1743C79.0732 67.1743 65.1932 75.3734 51.8404 83.3383C44.6368 87.6135 37.2576 92.0059 29.3513 95.1099L29.0585 94.29C36.9062 91.186 44.2854 86.8522 51.4304 82.5769C64.9004 74.5535 78.8975 66.2958 96.5256 66.2958C114.154 66.2958 128.092 74.5535 141.621 82.5769C155.032 90.5418 168.854 98.7409 186.248 98.7409C203.641 98.7409 217.521 90.5418 230.874 82.5769C244.344 74.5535 258.341 66.2958 275.97 66.2958V67.1743C258.576 67.1743 244.696 75.3734 231.343 83.3383C217.756 91.3031 203.817 99.5608 186.189 99.5608Z" fill="#00A859"/>
<path d="M186.189 93.6459C168.561 93.6459 154.622 85.3882 141.094 77.3648C127.682 69.3999 113.861 61.2007 96.4671 61.2007C79.0732 61.2007 65.2518 69.3999 51.8404 77.3648C44.6368 81.64 37.2576 86.0324 29.3513 89.1364L29.0585 88.3165C36.9062 85.2125 44.2854 80.8787 51.4304 76.6034C64.9004 68.58 78.8975 60.3223 96.5256 60.3223C114.154 60.3223 128.092 68.58 141.621 76.6034C155.032 84.5683 168.854 92.7674 186.248 92.7674C203.641 92.7674 217.521 84.5683 230.874 76.6034C244.344 68.58 258.341 60.3223 275.97 60.3223V61.2007C258.576 61.2007 244.696 69.3999 231.343 77.3648C217.756 85.3882 203.817 93.6459 186.189 93.6459Z" fill="#00A859"/>
<path d="M186.189 87.7893C168.561 87.7893 154.622 79.5316 141.094 71.5082C127.682 63.5433 113.861 55.3442 96.4671 55.3442C79.0732 55.3442 65.1932 63.5433 51.8404 71.5082C44.6368 75.7834 37.2576 80.1758 29.3513 83.2798L29.0585 82.4599C36.9062 79.3559 44.2854 75.0221 51.4304 70.7468C64.9004 62.7234 78.8975 54.4657 96.5256 54.4657C114.154 54.4657 128.092 62.7234 141.621 70.7468C155.032 78.7117 168.854 86.9108 186.248 86.9108C203.641 86.9108 217.521 78.7117 230.874 70.7468C244.344 62.7234 258.341 54.4657 275.97 54.4657V55.3442C258.576 55.3442 244.696 63.5433 231.343 71.5082C217.756 79.5316 203.817 87.7893 186.189 87.7893Z" fill="#00A859"/>
<path d="M186.189 81.8743C168.561 81.8743 154.622 73.6166 141.094 65.5931C127.682 57.6283 113.861 49.4291 96.4671 49.4291C79.0732 49.4291 65.2518 57.6283 51.8404 65.5931C44.6368 69.8684 37.2576 74.2608 29.3513 77.3648L29.0585 76.5448C36.9062 73.4409 44.2854 69.1071 51.4304 64.8318C64.9004 56.8084 78.8975 48.5507 96.5256 48.5507C114.154 48.5507 128.092 56.8084 141.621 64.8318C155.032 72.7967 168.854 80.9958 186.248 80.9958C203.641 80.9958 217.521 72.7967 230.874 64.8318C244.344 56.8084 258.341 48.5507 275.97 48.5507V49.4291C258.576 49.4291 244.696 57.6283 231.343 65.5931C217.756 73.6166 203.817 81.8743 186.189 81.8743Z" fill="#00A859"/>
<path d="M186.189 75.9591C168.561 75.9591 154.622 67.7014 141.094 59.678C127.682 51.7131 113.861 43.514 96.4672 43.514C79.0733 43.514 65.1933 51.7131 51.8404 59.678C44.6369 63.9532 37.1991 68.3456 29.2928 71.4496L29 70.6297C36.8477 67.5257 44.227 63.1919 51.3719 58.9166C64.8419 50.8932 78.839 42.6355 96.4672 42.6355C114.095 42.6355 128.034 50.8932 141.562 58.9166C154.974 66.8815 168.795 75.0806 186.189 75.0806C203.583 75.0806 217.463 66.8815 230.816 58.9166C244.286 50.8932 258.283 42.6355 275.911 42.6355V43.514C258.517 43.514 244.637 51.7131 231.284 59.678C217.756 67.7014 203.817 75.9591 186.189 75.9591Z" fill="#00A859"/>
<path d="M186.189 70.1027C168.561 70.1027 154.622 61.845 141.094 53.8215C127.682 45.8567 113.861 37.6575 96.4672 37.6575C79.0733 37.6575 65.2519 45.8567 51.8404 53.8215C44.6369 58.0968 37.1991 62.4892 29.2928 65.5932L29 64.7732C36.8477 61.6693 44.227 57.3355 51.3719 53.0602C64.8419 45.0368 78.839 36.7791 96.4672 36.7791C114.095 36.7791 128.034 45.0368 141.562 53.0602C154.974 61.0251 168.795 69.2242 186.189 69.2242C203.583 69.2242 217.463 61.0251 230.816 53.0602C244.286 45.0368 258.283 36.7791 275.911 36.7791V37.6575C258.517 37.6575 244.637 45.8567 231.284 53.8215C217.756 61.845 203.817 70.1027 186.189 70.1027Z" fill="#00A859"/>
<path d="M186.189 64.1875C168.561 64.1875 154.622 55.9298 141.094 47.9064C127.682 39.9415 113.861 31.7424 96.4672 31.7424C79.0733 31.7424 65.2519 39.9415 51.8404 47.9064C44.6369 52.1816 37.1991 56.574 29.2928 59.678L29 58.8581C36.8477 55.7541 44.227 51.4203 51.3719 47.145C64.8419 39.1216 78.839 30.8639 96.4672 30.8639C114.095 30.8639 128.034 39.1216 141.562 47.145C154.974 55.1099 168.795 63.309 186.189 63.309C203.583 63.309 217.463 55.1099 230.816 47.145C244.286 39.1216 258.283 30.8639 275.911 30.8639V31.7424C258.517 31.7424 244.637 39.9415 231.284 47.9064C217.756 55.9298 203.817 64.1875 186.189 64.1875Z" fill="#00A859"/>
<path d="M186.189 58.331C168.561 58.331 154.622 50.0732 141.094 42.0498C127.682 34.0849 113.861 25.8858 96.4672 25.8858C79.0733 25.8858 65.2519 34.0849 51.8404 42.0498C44.6369 46.3251 37.1991 50.7175 29.2928 53.8214L29 53.0015C36.8477 49.8976 44.227 45.5637 51.3719 41.2885C64.8419 33.265 78.839 25.0073 96.4672 25.0073C114.095 25.0073 128.034 33.265 141.562 41.2885C154.974 49.2533 168.795 57.4525 186.189 57.4525C203.583 57.4525 217.463 49.2533 230.816 41.2885C244.286 33.265 258.283 25.0073 275.911 25.0073V25.8858C258.517 25.8858 244.637 34.0849 231.284 42.0498C217.756 50.0147 203.817 58.331 186.189 58.331Z" fill="#00A859"/>
<path d="M186.189 52.4159C168.561 52.4159 154.622 44.1582 141.094 36.1348C127.682 28.1699 113.861 19.9708 96.4672 19.9708C79.0733 19.9708 65.1933 28.1699 51.8404 36.1348C44.6369 40.41 37.1991 44.8024 29.2928 47.9064L29 47.0865C36.8477 43.9825 44.227 39.6487 51.3719 35.3734C64.8419 27.35 78.839 19.0923 96.4672 19.0923C114.095 19.0923 128.034 27.35 141.562 35.3734C154.974 43.3383 168.795 51.5374 186.189 51.5374C203.583 51.5374 217.463 43.3383 230.816 35.3734C244.286 27.35 258.283 19.0923 275.911 19.0923V19.9708C258.517 19.9708 244.637 28.1699 231.284 36.1348C217.756 44.1582 203.817 52.4159 186.189 52.4159Z" fill="#00A859"/>
<path d="M186.189 46.5008C168.561 46.5008 154.622 38.2431 141.094 30.2196C127.682 22.2547 113.861 14.0556 96.4672 14.0556C79.0733 14.0556 65.2519 22.2547 51.8404 30.2196C44.6369 34.4949 37.1991 38.8873 29.2928 41.9912L29 41.1713C36.8477 38.0674 44.227 33.7335 51.3719 29.4583C64.8419 21.4348 78.839 13.1771 96.4672 13.1771C114.095 13.1771 128.034 21.4348 141.562 29.4583C154.974 37.4231 168.795 45.6223 186.189 45.6223C203.583 45.6223 217.463 37.4231 230.816 29.4583C244.286 21.4348 258.283 13.1771 275.911 13.1771V14.0556C258.517 14.0556 244.637 22.2547 231.284 30.2196C217.756 38.2431 203.817 46.5008 186.189 46.5008Z" fill="#00A859"/>
<path d="M186.189 40.6443C168.561 40.6443 154.622 32.3866 141.094 24.3632C127.682 16.3983 113.861 8.19916 96.4672 8.19916C79.0733 8.19916 65.2519 16.3983 51.8404 24.3632C44.6369 28.6384 37.1991 33.0308 29.2928 36.1348L29 35.3149C36.8477 32.2109 44.227 27.8771 51.3719 23.6018C64.8419 15.5784 78.839 7.32068 96.4672 7.32068C114.095 7.32068 128.034 15.5784 141.562 23.6018C154.974 31.5667 168.795 39.7658 186.189 39.7658C203.583 39.7658 217.463 31.5667 230.816 23.6018C244.286 15.5784 258.283 7.32068 275.911 7.32068V8.19916C258.517 8.19916 244.637 16.3983 231.284 24.3632C217.756 32.3866 203.817 40.6443 186.189 40.6443Z" fill="#00A859"/>
<path d="M186.189 34.7293C168.561 34.7293 154.622 26.4716 141.094 18.4481C127.682 10.4833 113.861 2.28412 96.4672 2.28412C79.0733 2.28412 65.2519 10.4833 51.8404 18.4481C44.6369 22.7234 37.1991 27.1158 29.2928 30.2197L29 29.3998C36.8477 26.2959 44.227 21.962 51.3719 17.6868C64.8419 9.66334 78.839 1.40564 96.4672 1.40564C114.095 1.40564 128.034 9.66334 141.562 17.6868C154.974 25.6517 168.795 33.8508 186.189 33.8508C203.583 33.8508 217.463 25.6517 230.816 17.6868C244.286 9.66334 258.283 1.40564 275.911 1.40564V2.28412C258.517 2.28412 244.637 10.4833 231.284 18.4481C217.756 26.4716 203.817 34.7293 186.189 34.7293Z" fill="#00A859"/>
<path d="M186.189 28.8727C168.561 28.8727 154.622 20.615 141.094 12.5915C133.89 8.31627 126.453 3.92387 118.546 0.819914L118.839 0C126.804 3.10396 134.242 7.55492 141.504 11.8302C154.915 19.7951 168.737 27.9942 186.131 27.9942C203.524 27.9942 217.404 19.7951 230.757 11.8302C237.961 7.55492 245.457 3.10396 253.422 0L253.715 0.819914C245.867 3.92387 238.429 8.31627 231.226 12.5915C217.756 20.5564 203.817 28.8727 186.189 28.8727Z" fill="#00A859"/>
<path d="M29.2928 24.3631L29 23.5432C36.8477 20.4393 44.227 16.1054 51.3719 11.8302C58.5755 7.55492 66.0718 3.10396 74.0367 0L74.3295 0.819914C66.4232 3.92387 58.9854 8.31627 51.8404 12.5915C44.6369 16.8082 37.1991 21.2592 29.2928 24.3631Z" fill="#00A859"/>
<path d="M186.189 22.9576C168.561 22.9576 154.622 14.6999 141.094 6.67644C137.756 4.68522 134.359 2.694 130.903 0.819914L131.313 0.0585655C134.769 1.93265 138.224 3.98244 141.562 5.97366C154.915 13.88 168.795 22.0791 186.189 22.0791C203.583 22.0791 217.463 13.88 230.816 5.91509C234.154 3.92387 237.609 1.87409 241.065 0L241.475 0.761349C238.019 2.63544 234.622 4.68522 231.284 6.61787C217.756 14.6999 203.817 22.9576 186.189 22.9576Z" fill="#00A859"/>
<path d="M29.2928 18.4481L29 17.6281C36.8477 14.5242 44.227 10.1904 51.3719 5.91509C54.7101 3.92387 58.1655 1.87409 61.6208 0L62.0308 0.761349C58.5755 2.63544 55.1787 4.68522 51.8404 6.67644C44.6369 10.9517 37.1991 15.3441 29.2928 18.4481Z" fill="#00A859"/>
<path d="M186.189 17.0425C168.561 17.0425 154.622 8.78479 141.094 0.761349L141.562 0C154.974 7.96487 168.795 16.164 186.189 16.164C203.583 16.164 217.404 7.96487 230.816 0L231.284 0.761349C217.756 8.78479 203.817 17.0425 186.189 17.0425Z" fill="#00A859"/>
<path d="M29.2928 12.533L29 11.713C36.8477 8.60909 44.227 4.27526 51.3719 0L51.8404 0.761349C44.6369 5.03661 37.1991 9.42901 29.2928 12.533Z" fill="#00A859"/>
<path d="M186.189 11.186C172.192 11.186 160.713 5.97368 151.343 0.819943L151.753 0.0585938C161.006 5.09521 172.368 10.3075 186.189 10.3075C200.01 10.3075 211.372 5.09521 220.625 0.0585938L221.035 0.819943C211.665 5.91512 200.186 11.186 186.189 11.186Z" fill="#00A859"/>
<path d="M29.2928 6.67647L29 5.85655C32.7482 4.39242 36.6135 2.51833 41.1816 0.0585938L41.5915 0.819943C37.0234 3.27968 33.0996 5.15377 29.2928 6.67647Z" fill="#00A859"/>
<path d="M186.189 5.27087C178.751 5.27087 171.431 3.80674 163.759 0.819914L164.051 0C171.606 2.92826 178.868 4.39239 186.189 4.39239C193.51 4.39239 200.713 2.92826 208.327 0L208.62 0.819914C200.947 3.80674 193.568 5.27087 186.189 5.27087Z" fill="#00A859"/>
</mask>
<g mask="url(#mask0)">
<circle cx="142.031" cy="97.8039" r="56.2226" fill="#00A859"/>
</g>
<rect y="25" width="1140" height="305" rx="5" fill="#00A859" fill-opacity="0.05"/>
<mask id="mask1" mask-type="alpha" maskUnits="userSpaceOnUse" x="0" y="25" width="1140" height="305">
<rect y="25" width="1140" height="305" rx="5" fill="#00A859" fill-opacity="0.05"/>
</mask>
<g mask="url(#mask1)">
<circle cx="964" cy="-112" r="325.5" fill="#076943" stroke="#076943"/>
</g>
</svg>
