<svg width="195" height="194" viewBox="0 0 195 194" fill="none" xmlns="http://www.w3.org/2000/svg">
<circle cx="4" cy="4" r="4" fill="#00A859"/>
<circle cx="4" cy="66" r="4" fill="#00A859"/>
<circle cx="4" cy="128" r="4" fill="#00A859"/>
<circle cx="4" cy="190" r="4" fill="#00A859"/>
<circle cx="4" cy="35" r="4" fill="#00A859"/>
<circle cx="4" cy="97" r="4" fill="#00A859"/>
<circle cx="4" cy="159" r="4" fill="#00A859"/>
<circle cx="35" cy="4" r="4" fill="#00A859"/>
<circle cx="35" cy="66" r="4" fill="#00A859"/>
<circle cx="35" cy="128" r="4" fill="#00A859"/>
<circle cx="35" cy="190" r="4" fill="#00A859"/>
<circle cx="35" cy="35" r="4" fill="#00A859"/>
<circle cx="35" cy="97" r="4" fill="#00A859"/>
<circle cx="35" cy="159" r="4" fill="#00A859"/>
<circle cx="129" cy="4" r="4" fill="#00A859"/>
<circle cx="191" cy="4" r="4" fill="#00A859"/>
<circle cx="98" cy="4" r="4" fill="#00A859"/>
<circle cx="160" cy="4" r="4" fill="#00A859"/>
<circle cx="67" cy="4" r="4" fill="#00A859"/>
<circle cx="129" cy="66" r="4" fill="#00A859"/>
<circle cx="191" cy="66" r="4" fill="#00A859"/>
<circle cx="129" cy="128" r="4" fill="#00A859"/>
<circle cx="129" cy="190" r="4" fill="#00A859"/>
<circle cx="191" cy="128" r="4" fill="#00A859"/>
<circle cx="191" cy="190" r="4" fill="#00A859"/>
<circle cx="98" cy="66" r="4" fill="#00A859"/>
<circle cx="160" cy="66" r="4" fill="#00A859"/>
<circle cx="98" cy="128" r="4" fill="#00A859"/>
<circle cx="98" cy="190" r="4" fill="#00A859"/>
<circle cx="160" cy="128" r="4" fill="#00A859"/>
<circle cx="160" cy="190" r="4" fill="#00A859"/>
<circle cx="67" cy="66" r="4" fill="#00A859"/>
<circle cx="67" cy="128" r="4" fill="#00A859"/>
<circle cx="67" cy="190" r="4" fill="#00A859"/>
<circle cx="129" cy="35" r="4" fill="#00A859"/>
<circle cx="191" cy="35" r="4" fill="#00A859"/>
<circle cx="98" cy="35" r="4" fill="#00A859"/>
<circle cx="160" cy="35" r="4" fill="#00A859"/>
<circle cx="67" cy="35" r="4" fill="#00A859"/>
<circle cx="129" cy="97" r="4" fill="#00A859"/>
<circle cx="191" cy="97" r="4" fill="#00A859"/>
<circle cx="129" cy="159" r="4" fill="#00A859"/>
<circle cx="191" cy="159" r="4" fill="#00A859"/>
<circle cx="98" cy="97" r="4" fill="#00A859"/>
<circle cx="160" cy="97" r="4" fill="#00A859"/>
<circle cx="98" cy="159" r="4" fill="#00A859"/>
<circle cx="160" cy="159" r="4" fill="#00A859"/>
<circle cx="67" cy="97" r="4" fill="#00A859"/>
<circle cx="67" cy="159" r="4" fill="#00A859"/>
</svg>
