<svg width="135" height="31" viewBox="0 0 135 31" fill="none" xmlns="http://www.w3.org/2000/svg">
<g clip-path="url(#clip0)">
<path fill-rule="evenodd" clip-rule="evenodd" d="M0.00145402 24.9547C1.36068 25.5804 11.9713 31 12.3077 31C12.6442 31 23.2559 25.5801 24.612 24.9547L24.614 0.0101251L0 0L0.00174483 24.9547H0.00145402Z" fill="url(#paint0_linear)"/>
<path fill-rule="evenodd" clip-rule="evenodd" d="M3.37231 3.70081H21.2455V8.44619H3.37231V3.70081Z" fill="#FEFEFE"/>
<path fill-rule="evenodd" clip-rule="evenodd" d="M3.37231 10.3529H15.7737V15.0983H3.37231V10.3529Z" fill="#FEFEFE"/>
<path fill-rule="evenodd" clip-rule="evenodd" d="M3.37231 17.0854H9.57315V21.8308H3.37231V17.0854Z" fill="#FEFEFE"/>
<path d="M41.886 5.16131V3.5553H30.1241V21.1205H31.9375V13.6679H40.808V12.0618H31.9375V5.16131H41.886Z" fill="black"/>
<path d="M45.9032 5.03564C46.6384 5.03564 47.1772 4.45851 47.1772 3.7307C47.1772 3.05321 46.6136 2.5011 45.9032 2.5011C45.1925 2.5011 44.6289 3.07823 44.6289 3.75571C44.6289 4.45822 45.1925 5.03564 45.9032 5.03564ZM45.0212 21.1202H46.7611V7.92129H45.0212V21.1202Z" fill="black"/>
<path d="M58.1785 7.823C55.9486 7.823 54.209 8.75153 53.2778 10.3572V7.92336H51.6115V21.1223H53.3514V14.1967C53.3514 11.1854 55.0913 9.42901 57.86 9.42901C60.3104 9.42901 61.7315 10.8593 61.7315 13.6446V21.1223H63.4714V13.4689C63.4714 9.67976 61.3151 7.823 58.1785 7.823Z" fill="black"/>
<path d="M72.7116 7.823C70.6777 7.823 68.7662 8.47547 67.4678 9.60471L68.2518 10.9347C69.3054 9.98113 70.8737 9.37898 72.54 9.37898C74.9415 9.37898 76.191 10.6086 76.191 12.8671V13.6699H72.0988C68.3986 13.6699 67.1243 15.3763 67.1243 17.4088C67.1243 19.6923 68.9131 21.248 71.8293 21.248C73.9612 21.248 75.4803 20.4198 76.2646 19.0648V21.1223H77.9309V12.9418C77.9309 9.52937 76.0442 7.823 72.7116 7.823ZM72.0988 19.8427C70.0405 19.8427 68.8398 18.8891 68.8398 17.3584C68.8398 16.0035 69.6485 14.9996 72.148 14.9996H76.191V17.1577C75.505 18.8891 74.0592 19.8427 72.0988 19.8427Z" fill="black"/>
<path d="M89.2255 7.823C86.9956 7.823 85.256 8.75153 84.3249 10.3572V7.92336H82.6586V21.1223H84.3985V14.1967C84.3985 11.1854 86.1383 9.42901 88.9071 9.42901C91.3574 9.42901 92.7786 10.8593 92.7786 13.6446V21.1223H94.5185V13.4689C94.5185 9.67976 92.3621 7.823 89.2255 7.823Z" fill="black"/>
<path d="M100.082 19.643L108.193 9.10396V7.92468H97.9991V9.43004H105.963L97.852 19.9443V21.1236H108.34V19.643H100.082Z" fill="black"/>
<path d="M116.279 7.823C114.245 7.823 112.334 8.47547 111.035 9.60471L111.819 10.9347C112.873 9.98113 114.441 9.37898 116.107 9.37898C118.509 9.37898 119.758 10.6086 119.758 12.8671V13.6699H115.666C111.966 13.6699 110.692 15.3763 110.692 17.4088C110.692 19.6923 112.481 21.248 115.397 21.248C117.529 21.248 119.048 20.4198 119.832 19.0648V21.1223H121.498V12.9418C121.498 9.52937 119.612 7.823 116.279 7.823ZM115.666 19.8427C113.608 19.8427 112.407 18.8891 112.407 17.3584C112.407 16.0035 113.216 14.9996 115.715 14.9996H119.758V17.1577C119.072 18.8891 117.627 19.8427 115.666 19.8427Z" fill="black"/>
<path d="M129.684 21.2477C133.041 21.2477 135.002 19.7673 135.002 17.4838C135.002 12.4192 126.646 15.1041 126.646 11.5368C126.646 10.2822 127.675 9.35367 130.003 9.35367C131.326 9.35367 132.674 9.68006 133.801 10.4829L134.561 9.0526C133.483 8.29977 131.669 7.823 130.003 7.823C126.719 7.823 124.906 9.42901 124.906 11.5868C124.906 16.806 133.262 14.1002 133.262 17.5338C133.262 18.8388 132.257 19.6917 129.807 19.6917C127.993 19.6917 126.254 19.0392 125.224 18.2113L124.44 19.6166C125.494 20.5452 127.552 21.2477 129.684 21.2477Z" fill="black"/>
</g>
<defs>
<linearGradient id="paint0_linear" x1="3.61529" y1="4.08785" x2="21.5149" y2="26.4997" gradientUnits="userSpaceOnUse">
<stop stop-color="#00A859"/>
<stop offset="1" stop-color="#076943"/>
</linearGradient>
<clipPath id="clip0">
<rect width="135" height="31" fill="white"/>
</clipPath>
</defs>
</svg>
