<svg width="195" height="195" viewBox="0 0 195 195" fill="none" xmlns="http://www.w3.org/2000/svg">
<mask id="mask0" mask-type="alpha" maskUnits="userSpaceOnUse" x="0" y="0" width="196" height="195">
<path d="M70.703 195C64.7379 191.985 59.0039 190.478 53.2238 190.478C47.4436 190.478 41.7559 191.985 35.7445 195L35.5133 194.156C41.5709 191.081 47.3511 189.573 53.2238 189.573C59.0964 189.573 64.8766 191.081 70.9342 194.156L70.703 195Z" fill="#D4D4D4"/>
<path d="M80.46 194.94C73.1539 189.694 64.1831 184.388 53.2701 184.388C42.3571 184.388 33.3863 189.754 26.0802 194.94L25.7565 194.156C33.1551 188.85 42.2184 183.483 53.2701 183.483C64.3218 183.483 73.3851 188.85 80.7837 194.156L80.46 194.94Z" fill="#D4D4D4"/>
<path d="M88.5061 194.939C77.9169 186.739 67.0039 178.297 53.2702 178.297C39.5365 178.297 28.6235 186.739 18.0342 194.939L17.6643 194.155C28.2998 185.895 39.3515 177.393 53.2702 177.393C67.1888 177.393 78.1943 185.895 88.8761 194.155L88.5061 194.939Z" fill="#D4D4D4"/>
<path d="M96.5522 194.939C93.824 193.01 91.0958 190.9 88.46 188.849C77.917 180.709 67.004 172.268 53.2703 172.268C39.5366 172.268 28.5774 180.709 18.0343 188.91C15.3986 190.96 12.6703 193.07 9.9421 195L9.61841 194.216C12.3467 192.286 15.0287 190.176 17.6644 188.186C28.2999 179.926 39.3516 171.424 53.2703 171.424C67.189 171.424 78.1944 179.926 88.8762 188.186C91.5119 190.236 94.1939 192.286 96.9222 194.216L96.5522 194.939Z" fill="#D4D4D4"/>
<path d="M106.402 195C100.113 191.804 94.2401 187.221 88.5062 182.82C77.9169 174.619 67.0039 166.178 53.2702 166.178C39.5365 166.178 28.6236 174.619 18.0343 182.82C12.3466 187.221 6.52018 191.744 0.277594 194.939L0.0463867 194.095C6.24273 190.9 12.0692 186.438 17.7106 182.036C28.3461 173.775 39.3978 165.273 53.3165 165.273C67.2351 165.273 78.2406 173.775 88.9224 182.036C94.61 186.438 100.483 190.96 106.725 194.156L106.402 195Z" fill="#D4D4D4"/>
<path d="M124.112 193.493C110.193 193.493 99.188 184.991 88.5062 176.73C77.9169 168.53 67.0039 160.088 53.2702 160.088C39.5365 160.088 28.5773 168.53 18.0343 176.73C12.3466 181.132 6.52018 185.654 0.277594 188.85L0.0463867 188.006C6.24273 184.81 12.0692 180.348 17.7106 175.946C28.3461 167.686 39.3978 159.184 53.3165 159.184C67.2351 159.184 78.2406 167.686 88.9224 175.946C99.5116 184.147 110.425 192.588 124.158 192.588C137.892 192.588 148.851 184.147 159.394 175.946C170.03 167.686 181.081 159.184 195 159.184V160.088C181.266 160.088 170.307 168.53 159.764 176.73C149.036 184.991 138.031 193.493 124.112 193.493Z" fill="#D4D4D4"/>
<path d="M124.112 187.463C110.193 187.463 99.188 178.961 88.5062 170.7C77.9169 162.5 67.0039 154.058 53.2702 154.058C39.5365 154.058 28.6236 162.5 18.0343 170.7C12.3466 175.102 6.52018 179.624 0.277594 182.82L0.0463867 181.976C6.24273 178.78 12.0692 174.318 17.7106 169.916C28.3461 161.656 39.3978 153.154 53.3165 153.154C67.2351 153.154 78.2406 161.656 88.9224 169.916C99.5116 178.117 110.425 186.558 124.158 186.558C137.892 186.558 148.851 178.117 159.394 169.916C170.03 161.656 181.081 153.154 195 153.154V154.058C181.266 154.058 170.307 162.5 159.764 170.7C149.036 178.901 138.031 187.463 124.112 187.463Z" fill="#D4D4D4"/>
<path d="M124.112 181.372C110.193 181.372 99.188 172.871 88.5062 164.61C77.9169 156.41 67.0039 147.968 53.2702 147.968C39.5365 147.968 28.6236 156.41 18.0343 164.61C12.3466 169.012 6.52018 173.534 0.277594 176.73L0.0463867 175.885C6.24273 172.69 12.0692 168.228 17.7106 163.826C28.3461 155.565 39.3978 147.064 53.3165 147.064C67.2351 147.064 78.2406 155.565 88.9224 163.826C99.5116 172.026 110.425 180.468 124.158 180.468C137.892 180.468 148.851 172.026 159.394 163.826C170.03 155.565 181.081 147.064 195 147.064V147.968C181.266 147.968 170.307 156.41 159.764 164.61C149.036 172.871 138.031 181.372 124.112 181.372Z" fill="#D4D4D4"/>
<path d="M124.112 175.283C110.193 175.283 99.1878 166.781 88.506 158.52C77.9168 150.32 67.0038 141.878 53.2701 141.878C39.5364 141.878 28.5772 150.32 18.0341 158.52C12.3465 162.922 6.4738 167.444 0.231207 170.64L0 169.796C6.19635 166.6 12.0228 162.138 17.6642 157.736C28.2997 149.476 39.3514 140.974 53.2701 140.974C67.1888 140.974 78.1942 149.476 88.876 157.736C99.4652 165.937 110.378 174.378 124.112 174.378C137.846 174.378 148.805 165.937 159.348 157.736C169.983 149.476 181.035 140.974 194.954 140.974V141.878C181.22 141.878 170.261 150.32 159.718 158.52C149.036 166.781 138.031 175.283 124.112 175.283Z" fill="#D4D4D4"/>
<path d="M124.112 169.253C110.193 169.253 99.1878 160.751 88.506 152.49C77.9168 144.29 67.0038 135.849 53.2701 135.849C39.5364 135.849 28.6234 144.29 18.0341 152.49C12.3465 156.892 6.4738 161.414 0.231207 164.61L0 163.766C6.19635 160.57 12.0228 156.108 17.6642 151.707C28.2997 143.446 39.3514 134.944 53.2701 134.944C67.1888 134.944 78.1942 143.446 88.876 151.707C99.4652 159.907 110.378 168.349 124.112 168.349C137.846 168.349 148.805 159.907 159.348 151.707C169.983 143.446 181.035 134.944 194.954 134.944V135.849C181.22 135.849 170.261 144.29 159.718 152.49C149.036 160.751 138.031 169.253 124.112 169.253Z" fill="#D4D4D4"/>
<path d="M124.112 163.163C110.193 163.163 99.188 154.661 88.5062 146.401C77.9169 138.2 67.0039 129.759 53.2702 129.759C39.5365 129.759 28.5773 138.2 18.0343 146.401C12.3466 150.802 6.52018 155.325 0.277594 158.52L0.0463867 157.676C6.24273 154.481 12.0692 150.019 17.7106 145.617C28.3461 137.356 39.3978 128.854 53.3165 128.854C67.2351 128.854 78.2406 137.356 88.9224 145.617C99.5116 153.817 110.425 162.259 124.158 162.259C137.892 162.259 148.851 153.817 159.394 145.617C170.03 137.356 181.081 128.854 195 128.854V129.759C181.266 129.759 170.307 138.2 159.764 146.401C149.036 154.661 138.031 163.163 124.112 163.163Z" fill="#D4D4D4"/>
<path d="M124.112 157.134C110.193 157.134 99.188 148.632 88.5062 140.371C77.9169 132.171 67.0039 123.729 53.2702 123.729C39.5365 123.729 28.6236 132.171 18.0343 140.371C12.3466 144.773 6.52018 149.295 0.277594 152.491L0.0463867 151.647C6.24273 148.451 12.0692 143.989 17.7106 139.587C28.3461 131.327 39.3978 122.825 53.3165 122.825C67.2351 122.825 78.2406 131.327 88.9224 139.587C99.5116 147.788 110.425 156.229 124.158 156.229C137.892 156.229 148.851 147.788 159.394 139.587C170.03 131.327 181.081 122.825 195 122.825V123.729C181.266 123.729 170.307 132.171 159.764 140.371C149.036 148.572 138.031 157.134 124.112 157.134Z" fill="#D4D4D4"/>
<path d="M124.112 151.044C110.193 151.044 99.188 142.542 88.5062 134.281C77.9169 126.081 67.0039 117.639 53.2702 117.639C39.5365 117.639 28.6236 126.081 18.0343 134.281C12.3466 138.683 6.52018 143.205 0.277594 146.401L0.0463867 145.557C6.24273 142.361 12.0692 137.899 17.7106 133.497C28.3461 125.237 39.3978 116.735 53.3165 116.735C67.2351 116.735 78.2406 125.237 88.9224 133.497C99.5116 141.698 110.425 150.139 124.158 150.139C137.892 150.139 148.851 141.698 159.394 133.497C170.03 125.237 181.081 116.735 195 116.735V117.639C181.266 117.639 170.307 126.081 159.764 134.281C149.036 142.542 138.031 151.044 124.112 151.044Z" fill="#D4D4D4"/>
<path d="M124.112 144.953C110.193 144.953 99.1878 136.452 88.506 128.191C77.9168 119.991 67.0038 111.549 53.2701 111.549C39.5364 111.549 28.6234 119.991 18.0341 128.191C12.3465 132.593 6.4738 137.115 0.231207 140.311L0 139.466C6.19635 136.271 12.0228 131.809 17.6642 127.407C28.2997 119.146 39.3514 110.645 53.2701 110.645C67.1888 110.645 78.1942 119.146 88.876 127.407C99.4652 135.607 110.378 144.049 124.112 144.049C137.846 144.049 148.805 135.607 159.348 127.407C169.983 119.146 181.035 110.645 194.954 110.645V111.549C181.22 111.549 170.261 119.991 159.718 128.191C149.036 136.452 138.031 144.953 124.112 144.953Z" fill="#D4D4D4"/>
<path d="M124.112 138.924C110.193 138.924 99.1878 130.422 88.506 122.161C77.9168 113.961 67.0038 105.519 53.2701 105.519C39.5364 105.519 28.6234 113.961 18.0341 122.161C12.3465 126.563 6.4738 131.085 0.231207 134.281L0 133.437C6.19635 130.241 12.0228 125.779 17.6642 121.377C28.2997 113.117 39.3514 104.615 53.2701 104.615C67.1888 104.615 78.1942 113.117 88.876 121.377C99.4652 129.578 110.378 138.019 124.112 138.019C137.846 138.019 148.805 129.578 159.348 121.377C169.983 113.117 181.035 104.615 194.954 104.615V105.519C181.22 105.519 170.261 113.961 159.718 122.161C149.036 130.362 138.031 138.924 124.112 138.924Z" fill="#D4D4D4"/>
<path d="M124.112 132.834C110.193 132.834 99.188 124.332 88.5062 116.071C77.9169 107.871 67.0039 99.4295 53.2702 99.4295C39.5365 99.4295 28.6236 107.871 18.0343 116.071C12.3466 120.473 6.52018 124.995 0.277594 128.191L0.0463867 127.347C6.24273 124.151 12.0692 119.689 17.7106 115.288C28.3461 107.027 39.3978 98.525 53.3165 98.525C67.2351 98.525 78.2406 107.027 88.9224 115.288C99.5116 123.488 110.425 131.929 124.158 131.929C137.892 131.929 148.851 123.488 159.394 115.288C170.03 107.027 181.081 98.525 195 98.525V99.4295C181.266 99.4295 170.307 107.871 159.764 116.071C149.036 124.332 138.031 132.834 124.112 132.834Z" fill="#D4D4D4"/>
<path d="M124.112 126.744C110.193 126.744 99.1878 118.242 88.506 109.981C77.9168 101.781 67.0038 93.3394 53.2701 93.3394C39.5364 93.3394 28.6234 101.781 18.0341 109.981C12.3465 114.383 6.4738 118.905 0.231207 122.101L0 121.257C6.19635 118.061 12.0228 113.599 17.6642 109.197C28.2997 100.937 39.3514 92.4349 53.2701 92.4349C67.1888 92.4349 78.1942 100.937 88.876 109.197C99.4652 117.398 110.378 125.839 124.112 125.839C137.846 125.839 148.805 117.398 159.348 109.197C169.983 100.937 181.035 92.4349 194.954 92.4349V93.3394C181.22 93.3394 170.261 101.781 159.718 109.981C149.036 118.242 138.031 126.744 124.112 126.744Z" fill="#D4D4D4"/>
<path d="M124.112 120.714C110.193 120.714 99.1878 112.213 88.506 103.952C77.9168 95.7515 67.0038 87.31 53.2701 87.31C39.5364 87.31 28.6234 95.7515 18.0341 103.952C12.3465 108.354 6.4738 112.876 0.231207 116.072L0 115.227C6.19635 112.032 12.0228 107.57 17.6642 103.168C28.2997 94.9074 39.3514 86.4055 53.2701 86.4055C67.1888 86.4055 78.1942 94.9074 88.876 103.168C99.4652 111.368 110.378 119.81 124.112 119.81C137.846 119.81 148.805 111.368 159.348 103.168C169.983 94.9074 181.035 86.4055 194.954 86.4055V87.31C181.22 87.31 170.261 95.7515 159.718 103.952C149.036 112.213 138.031 120.714 124.112 120.714Z" fill="#D4D4D4"/>
<path d="M124.112 114.624C110.193 114.624 99.188 106.122 88.5062 97.8616C77.9169 89.6612 67.0039 81.2196 53.2702 81.2196C39.5365 81.2196 28.5773 89.6612 18.0343 97.8616C12.3466 102.263 6.52018 106.785 0.277594 109.981L0.0463867 109.137C6.24273 105.941 12.0692 101.479 17.7106 97.0777C28.3461 88.817 39.3978 80.3152 53.3165 80.3152C67.2351 80.3152 78.2406 88.817 88.9224 97.0777C99.5116 105.278 110.425 113.72 124.158 113.72C137.892 113.72 148.851 105.278 159.394 97.0777C170.03 88.817 181.081 80.3152 195 80.3152V81.2196C181.266 81.2196 170.307 89.6612 159.764 97.8616C149.036 106.122 138.031 114.624 124.112 114.624Z" fill="#D4D4D4"/>
<path d="M124.112 108.595C110.193 108.595 99.188 100.093 88.5062 91.832C77.9169 83.6316 67.0039 75.1901 53.2702 75.1901C39.5365 75.1901 28.5773 83.6316 18.0343 91.832C12.3466 96.2337 6.52018 100.756 0.277594 103.952L0.0463867 103.108C6.24273 99.9118 12.0692 95.4498 17.7106 91.0482C28.3461 82.7875 39.3978 74.2856 53.3165 74.2856C67.2351 74.2856 78.2406 82.7875 88.9224 91.0482C99.5116 99.2485 110.425 107.69 124.158 107.69C137.892 107.69 148.851 99.2485 159.394 91.0482C170.03 82.7875 181.081 74.2856 195 74.2856V75.1901C181.266 75.1901 170.307 83.6316 159.764 91.832C149.036 100.032 138.031 108.595 124.112 108.595Z" fill="#D4D4D4"/>
<path d="M124.112 102.505C110.193 102.505 99.188 94.0028 88.5062 85.7422C77.9169 77.6021 67.0039 69.1606 53.2702 69.1606C39.5365 69.1606 28.5773 77.6021 18.0343 85.8025C12.3466 90.2041 6.52018 94.7264 0.277594 97.9221L0.0463867 97.078C6.24273 93.8822 12.0692 89.4203 17.7106 85.0186C28.3461 76.758 39.3978 68.2561 53.3165 68.2561C67.2351 68.2561 78.2406 76.758 88.9224 85.0186C99.5116 93.219 110.425 101.661 124.158 101.661C137.892 101.661 148.851 93.219 159.394 85.0186C170.03 76.758 181.081 68.2561 195 68.2561V69.1606C181.266 69.1606 170.307 77.6021 159.764 85.8025C149.036 94.0028 138.031 102.505 124.112 102.505Z" fill="#D4D4D4"/>
<path d="M124.112 96.4147C110.193 96.4147 99.188 87.9129 88.5062 79.6522C77.9169 71.4518 67.0039 63.0103 53.2702 63.0103C39.5365 63.0103 28.6236 71.4518 18.0343 79.6522C12.3466 84.0539 6.52018 88.5761 0.277594 91.7718L0.0463867 90.9277C6.24273 87.732 12.0692 83.27 17.7106 78.8683C28.3461 70.6077 39.3978 62.1058 53.3165 62.1058C67.2351 62.1058 78.2406 70.6077 88.9224 78.8683C99.5116 87.0687 110.425 95.5102 124.158 95.5102C137.892 95.5102 148.851 87.0687 159.394 78.8683C170.03 70.6077 181.081 62.1058 195 62.1058V63.0103C181.266 63.0103 170.307 71.4518 159.764 79.6522C149.036 87.9129 138.031 96.4147 124.112 96.4147Z" fill="#D4D4D4"/>
<path d="M124.112 90.3849C110.193 90.3849 99.188 81.8831 88.5062 73.6224C77.9169 65.422 67.0039 56.9805 53.2702 56.9805C39.5365 56.9805 28.5773 65.422 18.0343 73.6224C12.3466 78.0241 6.52018 82.5463 0.277594 85.7421L0.0463867 84.8979C6.24273 81.7022 12.0692 77.2402 17.7106 72.8386C28.3461 64.5779 39.3978 56.076 53.3165 56.076C67.2351 56.076 78.2406 64.5779 88.9224 72.8386C99.5116 81.0389 110.425 89.4805 124.158 89.4805C137.892 89.4805 148.851 81.0389 159.394 72.8386C170.03 64.5779 181.081 56.076 195 56.076V56.9805C181.266 56.9805 170.307 65.422 159.764 73.6224C149.036 81.8831 138.031 90.3849 124.112 90.3849Z" fill="#D4D4D4"/>
<path d="M124.112 84.2947C110.193 84.2947 99.188 75.7929 88.5062 67.5322C77.9169 59.3318 67.0039 50.8903 53.2702 50.8903C39.5365 50.8903 28.6236 59.3318 18.0343 67.5322C12.3466 71.9339 6.52018 76.4561 0.277594 79.6519L0.0463867 78.8077C6.24273 75.612 12.0692 71.15 17.7106 66.7483C28.3461 58.4877 39.3978 49.9858 53.3165 49.9858C67.2351 49.9858 78.2406 58.4877 88.9224 66.7483C99.5116 74.9487 110.425 83.3903 124.158 83.3903C137.892 83.3903 148.851 74.9487 159.394 66.7483C170.03 58.4877 181.081 49.9858 195 49.9858V50.8903C181.266 50.8903 170.307 59.3318 159.764 67.5322C149.036 75.7929 138.031 84.2947 124.112 84.2947Z" fill="#D4D4D4"/>
<path d="M124.112 78.2052C110.193 78.2052 99.1878 69.7034 88.506 61.4427C77.9168 53.2424 67.0038 44.8008 53.2701 44.8008C39.5364 44.8008 28.5772 53.2424 18.0341 61.4427C12.3465 65.8444 6.4738 70.3666 0.231207 73.5624L0 72.7182C6.19635 69.5225 12.0228 65.0605 17.6642 60.6589C28.2997 52.3982 39.3514 43.8964 53.2701 43.8964C67.1888 43.8964 78.1942 52.3982 88.876 60.6589C99.4652 68.8592 110.378 77.3008 124.112 77.3008C137.846 77.3008 148.805 68.8592 159.348 60.6589C169.983 52.3982 181.035 43.8964 194.954 43.8964V44.8008C181.22 44.8008 170.261 53.2424 159.718 61.4427C149.036 69.7034 138.031 78.2052 124.112 78.2052Z" fill="#D4D4D4"/>
<path d="M124.112 72.1751C110.193 72.1751 99.1878 63.6732 88.506 55.4126C77.9168 47.2122 67.0038 38.7707 53.2701 38.7707C39.5364 38.7707 28.6234 47.2122 18.0341 55.4126C12.3465 59.8142 6.4738 64.3365 0.231207 67.5322L0 66.6881C6.19635 63.4923 12.0228 59.0304 17.6642 54.6287C28.2997 46.3681 39.3514 37.8662 53.2701 37.8662C67.1888 37.8662 78.1942 46.3681 88.876 54.6287C99.4652 62.8291 110.378 71.2706 124.112 71.2706C137.846 71.2706 148.805 62.8291 159.348 54.6287C169.983 46.3681 181.035 37.8662 194.954 37.8662V38.7707C181.22 38.7707 170.261 47.2122 159.718 55.4126C149.036 63.6732 138.031 72.1751 124.112 72.1751Z" fill="#D4D4D4"/>
<path d="M124.112 66.0854C110.193 66.0854 99.1878 57.5835 88.506 49.3228C77.9168 41.1225 67.0038 32.6809 53.2701 32.6809C39.5364 32.6809 28.6234 41.1225 18.0341 49.3228C12.3465 53.7245 6.4738 58.2468 0.231207 61.4425L0 60.5983C6.19635 57.4026 12.0228 52.9407 17.6642 48.539C28.2997 40.2783 39.3514 31.7765 53.2701 31.7765C67.1888 31.7765 78.1942 40.2783 88.876 48.539C99.4652 56.7394 110.378 65.1809 124.112 65.1809C137.846 65.1809 148.805 56.7394 159.348 48.539C169.983 40.2783 181.035 31.7765 194.954 31.7765V32.6809C181.22 32.6809 170.261 41.1225 159.718 49.3228C149.036 57.5835 138.031 66.0854 124.112 66.0854Z" fill="#D4D4D4"/>
<path d="M124.112 60.0559C110.193 60.0559 99.1878 51.5541 88.506 43.2934C77.9168 35.0931 67.0038 26.6515 53.2701 26.6515C39.5364 26.6515 28.6234 35.0931 18.0341 43.2934C12.3465 47.6951 6.4738 52.2174 0.231207 55.4131L0 54.5689C6.19635 51.3732 12.0228 46.9112 17.6642 42.5096C28.2997 34.2489 39.3514 25.7471 53.2701 25.7471C67.1888 25.7471 78.1942 34.2489 88.876 42.5096C99.4652 50.7099 110.378 59.1515 124.112 59.1515C137.846 59.1515 148.805 50.7099 159.348 42.5096C169.983 34.2489 181.035 25.7471 194.954 25.7471V26.6515C181.22 26.6515 170.261 35.0931 159.718 43.2934C149.036 51.4938 138.031 60.0559 124.112 60.0559Z" fill="#D4D4D4"/>
<path d="M124.112 53.9658C110.193 53.9658 99.1878 45.464 88.506 37.2033C77.9168 29.003 67.0038 20.5614 53.2701 20.5614C39.5364 20.5614 28.5772 29.003 18.0341 37.2033C12.3465 41.605 6.4738 46.1273 0.231207 49.323L0 48.4788C6.19635 45.2831 12.0228 40.8212 17.6642 36.4195C28.2997 28.1588 39.3514 19.657 53.2701 19.657C67.1888 19.657 78.1942 28.1588 88.876 36.4195C99.4652 44.6198 110.378 53.0614 124.112 53.0614C137.846 53.0614 148.805 44.6198 159.348 36.4195C169.983 28.1588 181.035 19.657 194.954 19.657V20.5614C181.22 20.5614 170.261 29.003 159.718 37.2033C149.036 45.464 138.031 53.9658 124.112 53.9658Z" fill="#D4D4D4"/>
<path d="M124.112 47.8759C110.193 47.8759 99.1878 39.374 88.506 31.1134C77.9168 22.913 67.0038 14.4715 53.2701 14.4715C39.5364 14.4715 28.6234 22.913 18.0341 31.1134C12.3465 35.515 6.4738 40.0373 0.231207 43.233L0 42.3889C6.19635 39.1931 12.0228 34.7312 17.6642 30.3295C28.2997 22.0689 39.3514 13.567 53.2701 13.567C67.1888 13.567 78.1942 22.0689 88.876 30.3295C99.4652 38.5299 110.378 46.9714 124.112 46.9714C137.846 46.9714 148.805 38.5299 159.348 30.3295C169.983 22.0689 181.035 13.567 194.954 13.567V14.4715C181.22 14.4715 170.261 22.913 159.718 31.1134C149.036 39.374 138.031 47.8759 124.112 47.8759Z" fill="#D4D4D4"/>
<path d="M124.112 41.8461C110.193 41.8461 99.1878 33.3442 88.506 25.0836C77.9168 16.8832 67.0038 8.44168 53.2701 8.44168C39.5364 8.44168 28.6234 16.8832 18.0341 25.0836C12.3465 29.4853 6.4738 34.0075 0.231207 37.2032L0 36.3591C6.19635 33.1634 12.0228 28.7014 17.6642 24.2997C28.2997 16.0391 39.3514 7.53723 53.2701 7.53723C67.1888 7.53723 78.1942 16.0391 88.876 24.2997C99.4652 32.5001 110.378 40.9416 124.112 40.9416C137.846 40.9416 148.805 32.5001 159.348 24.2997C169.983 16.0391 181.035 7.53723 194.954 7.53723V8.44168C181.22 8.44168 170.261 16.8832 159.718 25.0836C149.036 33.3442 138.031 41.8461 124.112 41.8461Z" fill="#D4D4D4"/>
<path d="M124.112 35.756C110.193 35.756 99.1878 27.2542 88.506 18.9935C77.9168 10.7931 67.0038 2.3516 53.2701 2.3516C39.5364 2.3516 28.6234 10.7931 18.0341 18.9935C12.3465 23.3952 6.4738 27.9174 0.231207 31.1132L0 30.269C6.19635 27.0733 12.0228 22.6113 17.6642 18.2096C28.2997 9.94899 39.3514 1.44714 53.2701 1.44714C67.1888 1.44714 78.1942 9.94899 88.876 18.2096C99.4652 26.41 110.378 34.8516 124.112 34.8516C137.846 34.8516 148.805 26.41 159.348 18.2096C169.983 9.94899 181.035 1.44714 194.954 1.44714V2.3516C181.22 2.3516 170.261 10.7931 159.718 18.9935C149.036 27.2542 138.031 35.756 124.112 35.756Z" fill="#D4D4D4"/>
<path d="M124.112 29.7263C110.193 29.7263 99.188 21.2245 88.5062 12.9638C82.8185 8.56214 76.9458 4.03988 70.7032 0.844156L70.9345 0C77.2233 3.19573 83.0959 7.77828 88.8299 12.1799C99.4192 20.3803 110.332 28.8219 124.066 28.8219C137.8 28.8219 148.759 20.3803 159.302 12.1799C164.989 7.77828 170.908 3.19573 177.197 0L177.428 0.844156C171.232 4.03988 165.359 8.56214 159.672 12.9638C149.036 21.1642 138.031 29.7263 124.112 29.7263Z" fill="#D4D4D4"/>
<path d="M0.231573 25.0843L0.000366211 24.2402C6.19671 21.0444 12.0231 16.5825 17.6646 12.1808C23.3523 7.77914 29.2712 3.19658 35.56 0.000854492L35.7912 0.84501C29.5486 4.04074 23.676 8.563 18.0345 12.9647C12.3468 17.306 6.47416 21.8886 0.231573 25.0843Z" fill="#D4D4D4"/>
<path d="M124.112 23.6363C110.193 23.6363 99.1877 15.1345 88.506 6.87383C85.8702 4.82374 83.1882 2.77365 80.46 0.844156L80.7836 0.060297C83.5119 1.98979 86.2401 4.10018 88.8759 6.15027C99.4189 14.2903 110.378 22.7319 124.112 22.7319C137.846 22.7319 148.805 14.2903 159.348 6.08997C161.984 4.03988 164.712 1.9295 167.44 0L167.764 0.783859C165.035 2.71336 162.353 4.82374 159.718 6.81354C149.036 15.1345 138.031 23.6363 124.112 23.6363Z" fill="#D4D4D4"/>
<path d="M0.231573 18.9943L0.000366211 18.1502C6.19671 14.9545 12.0231 10.4925 17.6646 6.09083C20.3003 4.04074 23.0286 1.93035 25.7568 0.000854492L26.0805 0.784713C23.3523 2.71421 20.6703 4.8246 18.0345 6.87469C12.3468 11.2764 6.47416 15.7986 0.231573 18.9943Z" fill="#D4D4D4"/>
<path d="M124.112 17.5464C110.193 17.5464 99.1879 9.04452 88.5061 0.783859L88.876 0C99.4653 8.20036 110.378 16.6419 124.112 16.6419C137.846 16.6419 148.759 8.20036 159.348 0L159.718 0.783859C149.036 9.04452 138.031 17.5464 124.112 17.5464Z" fill="#D4D4D4"/>
<path d="M0.231573 12.9044L0.000366211 12.0602C6.19671 8.86448 12.0231 4.40252 17.6646 0.000854492L18.0345 0.784713C12.3468 5.18638 6.47416 9.70864 0.231573 12.9044Z" fill="#D4D4D4"/>
<path d="M124.112 11.5166C113.06 11.5166 103.997 6.15016 96.5983 0.844039L96.922 0.0601807C104.228 5.2457 113.199 10.6121 124.112 10.6121C135.025 10.6121 143.996 5.2457 151.302 0.0601807L151.626 0.844039C144.227 6.08986 135.164 11.5166 124.112 11.5166Z" fill="#D4D4D4"/>
<path d="M0.231207 6.87372L0 6.02956C2.95945 4.52214 6.01138 2.59265 9.61821 0.0601807L9.9419 0.844039C6.33507 3.3765 3.2369 5.306 0.231207 6.87372Z" fill="#D4D4D4"/>
<path d="M124.112 5.42671C118.239 5.42671 112.459 3.91929 106.401 0.844156L106.633 0C112.598 3.01484 118.332 4.52226 124.112 4.52226C129.892 4.52226 135.58 3.01484 141.591 0L141.822 0.844156C135.765 3.91929 129.938 5.42671 124.112 5.42671Z" fill="#D4D4D4"/>
</mask>
<g mask="url(#mask0)">
<circle cx="99.8442" cy="97.5006" r="97.5" fill="#00A859"/>
</g>
</svg>
