<svg width="300" height="300" viewBox="0 0 300 300" fill="none" xmlns="http://www.w3.org/2000/svg">
<mask id="mask0" mask-type="alpha" maskUnits="userSpaceOnUse" x="0" y="0" width="538" height="345">
<path d="M459.3 344.112C446.4 338.792 434 336.132 421.5 336.132C409 336.132 396.7 338.792 383.7 344.112L383.2 342.623C396.3 337.196 408.8 334.536 421.5 334.536C434.2 334.536 446.7 337.196 459.8 342.623L459.3 344.112Z" fill="#00A859"/>
<path d="M152.9 344.112C140 338.792 127.6 336.132 115.1 336.132C102.6 336.132 90.3001 338.792 77.3 344.112L76.8 342.623C89.9001 337.196 102.4 334.536 115.1 334.536C127.8 334.536 140.3 337.196 153.4 342.623L152.9 344.112Z" fill="#00A859"/>
<path d="M480.4 344.006C464.6 334.749 445.2 325.385 421.6 325.385C398 325.385 378.6 334.855 362.8 344.006L362.1 342.623C378.1 333.259 397.7 323.789 421.6 323.789C445.5 323.789 465.1 333.259 481.1 342.623L480.4 344.006Z" fill="#00A859"/>
<path d="M174 344.006C158.2 334.749 138.8 325.385 115.2 325.385C91.6 325.385 72.2 334.855 56.3999 344.006L55.7 342.623C71.7 333.259 91.3 323.789 115.2 323.789C139.1 323.789 158.7 333.259 174.7 342.623L174 344.006Z" fill="#00A859"/>
<path d="M497.8 344.006C474.9 329.535 451.3 314.638 421.6 314.638C391.9 314.638 368.3 329.535 345.4 344.006L344.6 342.623C367.6 328.045 391.5 313.042 421.6 313.042C451.7 313.042 475.5 328.045 498.6 342.623L497.8 344.006Z" fill="#00A859"/>
<path d="M191.4 344.006C168.5 329.535 144.9 314.638 115.2 314.638C85.5 314.638 61.9 329.535 39 344.006L38.2 342.623C61.2 328.045 85.1 313.042 115.2 313.042C145.3 313.042 169.1 328.045 192.2 342.623L191.4 344.006Z" fill="#00A859"/>
<path d="M515.2 344.006C509.3 340.601 503.4 336.877 497.8 333.259C474.9 318.895 451.3 303.998 421.6 303.998C391.9 303.998 368.2 318.895 345.4 333.366C339.7 336.983 333.8 340.708 327.9 344.112L327.2 342.729C333.1 339.324 338.9 335.6 344.6 332.089C367.6 317.511 391.5 302.508 421.6 302.508C451.7 302.508 475.5 317.511 498.6 332.089C504.3 335.706 510.1 339.324 516 342.729L515.2 344.006Z" fill="#00A859"/>
<path d="M208.8 344.006C202.9 340.601 197 336.877 191.3 333.259C168.5 318.895 144.9 303.998 115.2 303.998C85.5 303.998 61.8 318.895 39 333.366C33.3 336.983 27.4 340.708 21.5 344.112L20.8 342.729C26.7 339.324 32.5 335.6 38.2 332.089C61.2 317.511 85.1 302.508 115.2 302.508C145.3 302.508 169.1 317.511 192.2 332.089C197.9 335.706 203.7 339.324 209.6 342.729L208.8 344.006Z" fill="#00A859"/>
<path d="M536.4 344.112C522.8 338.473 510.1 330.386 497.7 322.619C474.8 308.148 451.2 293.251 421.5 293.251C391.8 293.251 368.1 308.148 345.3 322.619C333 330.386 320.2 338.473 306.6 344.112L306.1 342.623C319.6 336.983 332.3 329.003 344.6 321.236C367.6 306.658 391.5 291.655 421.6 291.655C451.7 291.655 475.5 306.658 498.6 321.236C510.9 329.003 523.6 336.983 537.1 342.623L536.4 344.112Z" fill="#00A859"/>
<path d="M230.1 344.112C216.5 338.473 203.8 330.386 191.4 322.619C168.5 308.148 144.9 293.251 115.2 293.251C85.5 293.251 61.9 308.148 39 322.619C26.7 330.386 14.1 338.367 0.599976 344.006L0.0999756 342.516C13.5 336.877 26.1 329.003 38.3 321.236C61.3 306.658 85.2 291.655 115.3 291.655C145.4 291.655 169.2 306.658 192.3 321.236C204.6 329.003 217.3 336.983 230.8 342.623L230.1 344.112Z" fill="#00A859"/>
<path d="M268.4 341.452C238.3 341.452 214.5 326.449 191.4 311.872C168.5 297.401 144.9 282.504 115.2 282.504C85.5 282.504 61.8 297.401 39 311.872C26.7 319.639 14.1 327.62 0.599976 333.259L0.0999756 331.77C13.5 326.13 26.1 318.256 38.3 310.489C61.3 295.911 85.2 280.908 115.3 280.908C145.4 280.908 169.2 295.911 192.3 310.489C215.2 324.96 238.8 339.856 268.5 339.856C298.2 339.856 321.9 324.96 344.7 310.489C367.7 295.911 391.6 280.908 421.7 280.908V282.504C392 282.504 368.3 297.401 345.5 311.872C322.3 326.449 298.5 341.452 268.4 341.452Z" fill="#00A859"/>
<path d="M268.4 330.812C238.3 330.812 214.5 315.809 191.4 301.231C168.5 286.76 144.9 271.864 115.2 271.864C85.5 271.864 61.9 286.76 39 301.231C26.7 308.999 14.1 316.979 0.599976 322.619L0.0999756 321.129C13.5 315.49 26.1 307.616 38.3 299.848C61.3 285.271 85.2 270.268 115.3 270.268C145.4 270.268 169.2 285.271 192.3 299.848C215.2 314.319 238.8 329.216 268.5 329.216C298.2 329.216 321.9 314.319 344.7 299.848C367.7 285.271 391.6 270.268 421.7 270.268V271.864C392 271.864 368.3 286.76 345.5 301.231C322.3 315.702 298.5 330.812 268.4 330.812Z" fill="#00A859"/>
<path d="M268.4 320.065C238.3 320.065 214.5 305.062 191.4 290.484C168.5 276.013 144.9 261.117 115.2 261.117C85.5 261.117 61.9 276.013 39 290.484C26.7 298.252 14.1 306.232 0.599976 311.872L0.0999756 310.382C13.5 304.743 26.1 296.869 38.3 289.101C61.3 274.524 85.2 259.521 115.3 259.521C145.4 259.521 169.2 274.524 192.3 289.101C215.2 303.572 238.8 318.469 268.5 318.469C298.2 318.469 321.9 303.572 344.7 289.101C367.7 274.524 391.6 259.521 421.7 259.521V261.117C392 261.117 368.3 276.013 345.5 290.484C322.3 305.062 298.5 320.065 268.4 320.065Z" fill="#00A859"/>
<path d="M268.4 309.318C238.3 309.318 214.5 294.315 191.4 279.738C168.5 265.267 144.9 250.37 115.2 250.37C85.5 250.37 61.8 265.267 39 279.738C26.7 287.505 14 295.486 0.5 301.125L0 299.635C13.4 293.996 26 286.122 38.2 278.354C61.2 263.777 85.1 248.774 115.2 248.774C145.3 248.774 169.1 263.777 192.2 278.354C215.1 292.825 238.7 307.722 268.4 307.722C298.1 307.722 321.8 292.825 344.6 278.354C367.6 263.777 391.5 248.774 421.6 248.774V250.37C391.9 250.37 368.2 265.267 345.4 279.738C322.3 294.315 298.5 309.318 268.4 309.318Z" fill="#00A859"/>
<path d="M268.4 298.678C238.3 298.678 214.5 283.675 191.4 269.097C168.5 254.626 144.9 239.73 115.2 239.73C85.5 239.73 61.9 254.626 39 269.097C26.7 276.865 14 284.845 0.5 290.485L0 288.995C13.4 283.355 26 275.482 38.2 267.714C61.2 253.137 85.1 238.134 115.2 238.134C145.3 238.134 169.1 253.137 192.2 267.714C215.1 282.185 238.7 297.082 268.4 297.082C298.1 297.082 321.8 282.185 344.6 267.714C367.6 253.137 391.5 238.134 421.6 238.134V239.73C391.9 239.73 368.2 254.626 345.4 269.097C322.3 283.675 298.5 298.678 268.4 298.678Z" fill="#00A859"/>
<path d="M268.4 287.931C238.3 287.931 214.5 272.928 191.4 258.35C168.5 243.879 144.9 228.983 115.2 228.983C85.5 228.983 61.8 243.879 39 258.35C26.7 266.118 14.1 274.098 0.599976 279.738L0.0999756 278.248C13.5 272.609 26.1 264.735 38.3 256.967C61.3 242.39 85.2 227.387 115.3 227.387C145.4 227.387 169.2 242.39 192.3 256.967C215.2 271.438 238.8 286.335 268.5 286.335C298.2 286.335 321.9 271.438 344.7 256.967C367.7 242.39 391.6 227.387 421.7 227.387V228.983C392 228.983 368.3 243.879 345.5 258.35C322.3 272.928 298.5 287.931 268.4 287.931Z" fill="#00A859"/>
<path d="M268.4 277.29C238.3 277.29 214.5 262.287 191.4 247.71C168.5 233.239 144.9 218.342 115.2 218.342C85.5 218.342 61.9 233.239 39 247.71C26.7 255.477 14.1 263.458 0.599976 269.097L0.0999756 267.608C13.5 261.968 26.1 254.094 38.3 246.327C61.3 231.749 85.2 216.746 115.3 216.746C145.4 216.746 169.2 231.749 192.3 246.327C215.2 260.798 238.8 275.694 268.5 275.694C298.2 275.694 321.9 260.798 344.7 246.327C367.7 231.749 391.6 216.746 421.7 216.746V218.342C392 218.342 368.3 233.239 345.5 247.71C322.3 262.181 298.5 277.29 268.4 277.29Z" fill="#00A859"/>
<path d="M268.4 266.544C238.3 266.544 214.5 251.54 191.4 236.963C168.5 222.492 144.9 207.595 115.2 207.595C85.5 207.595 61.9 222.492 39 236.963C26.7 244.731 14.1 252.711 0.599976 258.35L0.0999756 256.861C13.5 251.221 26.1 243.347 38.3 235.58C61.3 221.002 85.2 205.999 115.3 205.999C145.4 205.999 169.2 221.002 192.3 235.58C215.2 250.051 238.8 264.947 268.5 264.947C298.2 264.947 321.9 250.051 344.7 235.58C367.7 221.002 391.6 205.999 421.7 205.999V207.595C392 207.595 368.3 222.492 345.5 236.963C322.3 251.54 298.5 266.544 268.4 266.544Z" fill="#00A859"/>
<path d="M268.4 255.797C238.3 255.797 214.5 240.794 191.4 226.216C168.5 211.745 144.9 196.849 115.2 196.849C85.5 196.849 61.9 211.745 39 226.216C26.7 233.984 14 241.964 0.5 247.603L0 246.114C13.4 240.474 26 232.6 38.2 224.833C61.2 210.255 85.1 195.252 115.2 195.252C145.3 195.252 169.1 210.255 192.2 224.833C215.1 239.304 238.7 254.201 268.4 254.201C298.1 254.201 321.8 239.304 344.6 224.833C367.6 210.255 391.5 195.252 421.6 195.252V196.849C391.9 196.849 368.2 211.745 345.4 226.216C322.3 240.794 298.5 255.797 268.4 255.797Z" fill="#00A859"/>
<path d="M268.4 245.156C238.3 245.156 214.5 230.153 191.4 215.576C168.5 201.105 144.9 186.208 115.2 186.208C85.5 186.208 61.9 201.105 39 215.576C26.7 223.343 14 231.324 0.5 236.963L0 235.473C13.4 229.834 26 221.96 38.2 214.192C61.2 199.615 85.1 184.612 115.2 184.612C145.3 184.612 169.1 199.615 192.2 214.192C215.1 228.663 238.7 243.56 268.4 243.56C298.1 243.56 321.8 228.663 344.6 214.192C367.6 199.615 391.5 184.612 421.6 184.612V186.208C391.9 186.208 368.2 201.105 345.4 215.576C322.3 230.047 298.5 245.156 268.4 245.156Z" fill="#00A859"/>
<path d="M268.4 234.409C238.3 234.409 214.5 219.406 191.4 204.829C168.5 190.358 144.9 175.461 115.2 175.461C85.5 175.461 61.9 190.358 39 204.829C26.7 212.596 14.1 220.577 0.599976 226.216L0.0999756 224.726C13.5 219.087 26.1 211.213 38.3 203.446C61.3 188.868 85.2 173.865 115.3 173.865C145.4 173.865 169.2 188.868 192.3 203.446C215.2 217.917 238.8 232.813 268.5 232.813C298.2 232.813 321.9 217.917 344.7 203.446C367.7 188.868 391.6 173.865 421.7 173.865V175.461C392 175.461 368.3 190.358 345.5 204.829C322.3 219.406 298.5 234.409 268.4 234.409Z" fill="#00A859"/>
<path d="M268.4 223.662C238.3 223.662 214.5 208.659 191.4 194.082C168.5 179.611 144.9 164.714 115.2 164.714C85.5 164.714 61.9 179.611 39 194.082C26.7 201.849 14 209.83 0.5 215.469L0 213.98C13.4 208.34 26 200.466 38.2 192.699C61.2 178.121 85.1 163.118 115.2 163.118C145.3 163.118 169.1 178.121 192.2 192.699C215.1 207.17 238.7 222.066 268.4 222.066C298.1 222.066 321.8 207.17 344.6 192.699C367.6 178.121 391.5 163.118 421.6 163.118V164.714C391.9 164.714 368.2 179.611 345.4 194.082C322.3 208.659 298.5 223.662 268.4 223.662Z" fill="#00A859"/>
<path d="M268.4 213.022C238.3 213.022 214.5 198.019 191.4 183.442C168.5 168.971 144.9 154.074 115.2 154.074C85.5 154.074 61.9 168.971 39 183.442C26.7 191.209 14 199.189 0.5 204.829L0 203.339C13.4 197.7 26 189.826 38.2 182.058C61.2 167.481 85.1 152.478 115.2 152.478C145.3 152.478 169.1 167.481 192.2 182.058C215.1 196.529 238.7 211.426 268.4 211.426C298.1 211.426 321.8 196.529 344.6 182.058C367.6 167.481 391.5 152.478 421.6 152.478V154.074C391.9 154.074 368.2 168.971 345.4 183.442C322.3 198.019 298.5 213.022 268.4 213.022Z" fill="#00A859"/>
<path d="M268.4 202.275C238.3 202.275 214.5 187.272 191.4 172.695C168.5 158.224 144.9 143.327 115.2 143.327C85.5 143.327 61.8 158.224 39 172.695C26.7 180.462 14.1 188.443 0.599976 194.082L0.0999756 192.592C13.5 186.953 26.1 179.079 38.3 171.311C61.3 156.734 85.2 141.731 115.3 141.731C145.4 141.731 169.2 156.734 192.3 171.311C215.2 185.782 238.8 200.679 268.5 200.679C298.2 200.679 321.9 185.782 344.7 171.311C367.7 156.734 391.6 141.731 421.7 141.731V143.327C392 143.327 368.3 158.224 345.5 172.695C322.3 187.272 298.5 202.275 268.4 202.275Z" fill="#00A859"/>
<path d="M268.4 191.635C238.3 191.635 214.5 176.632 191.4 162.054C168.5 147.583 144.9 132.687 115.2 132.687C85.5 132.687 61.8 147.583 39 162.054C26.7 169.822 14.1 177.802 0.599976 183.442L0.0999756 181.952C13.5 176.312 26.1 168.438 38.3 160.671C61.3 146.094 85.2 131.09 115.3 131.09C145.4 131.09 169.2 146.094 192.3 160.671C215.2 175.142 238.8 190.039 268.5 190.039C298.2 190.039 321.9 175.142 344.7 160.671C367.7 146.094 391.6 131.09 421.7 131.09V132.687C392 132.687 368.3 147.583 345.5 162.054C322.3 176.525 298.5 191.635 268.4 191.635Z" fill="#00A859"/>
<path d="M268.4 180.888C238.3 180.888 214.5 165.885 191.4 151.307C168.5 136.943 144.9 122.046 115.2 122.046C85.5 122.046 61.8 136.943 39 151.414C26.7 159.181 14.1 167.162 0.599976 172.801L0.0999756 171.311C13.5 165.672 26.1 157.798 38.3 150.03C61.3 135.453 85.2 120.45 115.3 120.45C145.4 120.45 169.2 135.453 192.3 150.03C215.2 164.501 238.8 179.398 268.5 179.398C298.2 179.398 321.9 164.501 344.7 150.03C367.7 135.453 391.6 120.45 421.7 120.45V122.046C392 122.046 368.3 136.943 345.5 151.414C322.3 165.885 298.5 180.888 268.4 180.888Z" fill="#00A859"/>
<path d="M268.4 170.141C238.3 170.141 214.5 155.138 191.4 140.56C168.5 126.089 144.9 111.193 115.2 111.193C85.5 111.193 61.9 126.089 39 140.56C26.7 148.328 14.1 156.308 0.599976 161.948L0.0999756 160.458C13.5 154.819 26.1 146.945 38.3 139.177C61.3 124.6 85.2 109.597 115.3 109.597C145.4 109.597 169.2 124.6 192.3 139.177C215.2 153.648 238.8 168.545 268.5 168.545C298.2 168.545 321.9 153.648 344.7 139.177C367.7 124.6 391.6 109.597 421.7 109.597V111.193C392 111.193 368.3 126.089 345.5 140.56C322.3 155.138 298.5 170.141 268.4 170.141Z" fill="#00A859"/>
<path d="M268.4 159.501C238.3 159.501 214.5 144.497 191.4 129.92C168.5 115.449 144.9 100.552 115.2 100.552C85.5 100.552 61.8 115.449 39 129.92C26.7 137.688 14.1 145.668 0.599976 151.307L0.0999756 149.818C13.5 144.178 26.1 136.304 38.3 128.537C61.3 113.959 85.2 98.9563 115.3 98.9563C145.4 98.9563 169.2 113.959 192.3 128.537C215.2 143.008 238.8 157.904 268.5 157.904C298.2 157.904 321.9 143.008 344.7 128.537C367.7 113.959 391.6 98.9563 421.7 98.9563V100.552C392 100.552 368.3 115.449 345.5 129.92C322.3 144.497 298.5 159.501 268.4 159.501Z" fill="#00A859"/>
<path d="M268.4 148.754C238.3 148.754 214.5 133.75 191.4 119.173C168.5 104.702 144.9 89.8054 115.2 89.8054C85.5 89.8054 61.9 104.702 39 119.173C26.7 126.941 14.1 134.921 0.599976 140.56L0.0999756 139.071C13.5 133.431 26.1 125.557 38.3 117.79C61.3 103.212 85.2 88.2094 115.3 88.2094C145.4 88.2094 169.2 103.212 192.3 117.79C215.2 132.261 238.8 147.157 268.5 147.157C298.2 147.157 321.9 132.261 344.7 117.79C367.7 103.212 391.6 88.2094 421.7 88.2094V89.8054C392 89.8054 368.3 104.702 345.5 119.173C322.3 133.75 298.5 148.754 268.4 148.754Z" fill="#00A859"/>
<path d="M268.4 138.007C238.3 138.007 214.5 123.004 191.4 108.426C168.5 93.9552 144.9 79.0586 115.2 79.0586C85.5 79.0586 61.8 93.9552 39 108.426C26.7 116.194 14 124.174 0.5 129.814L0 128.324C13.4 122.685 26 114.811 38.2 107.043C61.2 92.4656 85.1 77.4625 115.2 77.4625C145.3 77.4625 169.1 92.4656 192.2 107.043C215.1 121.514 238.7 136.411 268.4 136.411C298.1 136.411 321.8 121.514 344.6 107.043C367.6 92.4656 391.5 77.4625 421.6 77.4625V79.0586C391.9 79.0586 368.2 93.9552 345.4 108.426C322.3 123.004 298.5 138.007 268.4 138.007Z" fill="#00A859"/>
<path d="M268.4 127.366C238.3 127.366 214.5 112.363 191.4 97.7858C168.5 83.3147 144.9 68.4181 115.2 68.4181C85.5 68.4181 61.9 83.3147 39 97.7858C26.7 105.553 14 113.534 0.5 119.173L0 117.683C13.4 112.044 26 104.17 38.2 96.4025C61.2 81.8251 85.1 66.822 115.2 66.822C145.3 66.822 169.1 81.8251 192.2 96.4025C215.1 110.874 238.7 125.77 268.4 125.77C298.1 125.77 321.8 110.874 344.6 96.4025C367.6 81.8251 391.5 66.822 421.6 66.822V68.4181C391.9 68.4181 368.2 83.3147 345.4 97.7858C322.3 112.363 298.5 127.366 268.4 127.366Z" fill="#00A859"/>
<path d="M268.4 116.619C238.3 116.619 214.5 101.616 191.4 87.0389C168.5 72.5679 144.9 57.6713 115.2 57.6713C85.5 57.6713 61.9 72.5679 39 87.0389C26.7 94.8065 14 102.787 0.5 108.426L0 106.937C13.4 101.297 26 93.4232 38.2 85.6557C61.2 71.0782 85.1 56.0752 115.2 56.0752C145.3 56.0752 169.1 71.0782 192.2 85.6557C215.1 100.127 238.7 115.023 268.4 115.023C298.1 115.023 321.8 100.127 344.6 85.6557C367.6 71.0782 391.5 56.0752 421.6 56.0752V57.6713C391.9 57.6713 368.2 72.5679 345.4 87.0389C322.3 101.616 298.5 116.619 268.4 116.619Z" fill="#00A859"/>
<path d="M268.4 105.979C238.3 105.979 214.5 90.9759 191.4 76.3984C168.5 61.9274 144.9 47.0308 115.2 47.0308C85.5 47.0308 61.9 61.9274 39 76.3984C26.7 84.166 14 92.1463 0.5 97.7858L0 96.2961C13.4 90.6567 26 82.7827 38.2 75.0152C61.2 60.4377 85.1 45.4347 115.2 45.4347C145.3 45.4347 169.1 60.4377 192.2 75.0152C215.1 89.4862 238.7 104.383 268.4 104.383C298.1 104.383 321.8 89.4862 344.6 75.0152C367.6 60.4377 391.5 45.4347 421.6 45.4347V47.0308C391.9 47.0308 368.2 61.9274 345.4 76.3984C322.3 90.8695 298.5 105.979 268.4 105.979Z" fill="#00A859"/>
<path d="M268.4 95.2321C238.3 95.2321 214.5 80.229 191.4 65.6516C168.5 51.1806 144.9 36.2839 115.2 36.2839C85.5 36.2839 61.8 51.1806 39 65.6516C26.7 73.4191 14 81.3995 0.5 87.0389L0 85.5493C13.4 79.9098 26 72.0359 38.2 64.2683C61.2 49.6909 85.1 34.6879 115.2 34.6879C145.3 34.6879 169.1 49.6909 192.2 64.2683C215.1 78.7394 238.7 93.636 268.4 93.636C298.1 93.636 321.8 78.7394 344.6 64.2683C367.6 49.6909 391.5 34.6879 421.6 34.6879V36.2839C391.9 36.2839 368.2 51.1806 345.4 65.6516C322.3 80.229 298.5 95.2321 268.4 95.2321Z" fill="#00A859"/>
<path d="M268.4 84.4853C238.3 84.4853 214.5 69.4822 191.4 54.9048C168.5 40.4338 144.9 25.5371 115.2 25.5371C85.5 25.5371 61.9 40.4338 39 54.9048C26.7 62.6723 14 70.6527 0.5 76.2921L0 74.8024C13.4 69.163 26 61.2891 38.2 53.5215C61.2 38.9441 85.1 23.941 115.2 23.941C145.3 23.941 169.1 38.9441 192.2 53.5215C215.1 67.9925 238.7 82.8892 268.4 82.8892C298.1 82.8892 321.8 67.9925 344.6 53.5215C367.6 38.9441 391.5 23.941 421.6 23.941V25.5371C391.9 25.5371 368.2 40.4338 345.4 54.9048C322.3 69.4822 298.5 84.4853 268.4 84.4853Z" fill="#00A859"/>
<path d="M268.4 73.8448C238.3 73.8448 214.5 58.8417 191.4 44.2643C168.5 29.7933 144.9 14.8966 115.2 14.8966C85.5 14.8966 61.9 29.7933 39 44.2643C26.7 52.0318 14 60.0122 0.5 65.6516L0 64.1619C13.4 58.5225 26 50.6486 38.2 42.881C61.2 28.3036 85.1 13.3005 115.2 13.3005C145.3 13.3005 169.1 28.3036 192.2 42.881C215.1 57.352 238.7 72.2487 268.4 72.2487C298.1 72.2487 321.8 57.352 344.6 42.881C367.6 28.3036 391.5 13.3005 421.6 13.3005V14.8966C391.9 14.8966 368.2 29.7933 345.4 44.2643C322.3 58.8417 298.5 73.8448 268.4 73.8448Z" fill="#00A859"/>
<path d="M268.4 63.0979C238.3 63.0979 214.5 48.0949 191.4 33.5175C168.5 19.0464 144.9 4.14978 115.2 4.14978C85.5 4.14978 61.9 19.0464 39 33.5175C26.7 41.285 14 49.2653 0.5 54.9048L0 53.4151C13.4 47.7757 26 39.9017 38.2 32.1342C61.2 17.5568 85.1 2.55371 115.2 2.55371C145.3 2.55371 169.1 17.5568 192.2 32.1342C215.1 46.6052 238.7 61.5019 268.4 61.5019C298.1 61.5019 321.8 46.6052 344.6 32.1342C367.6 17.5568 391.5 2.55371 421.6 2.55371V4.14978C391.9 4.14978 368.2 19.0464 345.4 33.5175C322.3 48.0949 298.5 63.0979 268.4 63.0979Z" fill="#00A859"/>
<path d="M268.4 52.4575C238.3 52.4575 214.5 37.4544 191.4 22.877C179.1 15.1095 166.4 7.12911 152.9 1.48967L153.4 0C167 5.63944 179.7 13.7262 192.1 21.4937C215 35.9648 238.6 50.8614 268.3 50.8614C298 50.8614 321.7 35.9648 344.5 21.4937C356.8 13.7262 369.6 5.63944 383.2 0L383.7 1.48967C370.3 7.12911 357.6 15.1095 345.3 22.877C322.3 37.348 298.5 52.4575 268.4 52.4575Z" fill="#00A859"/>
<path d="M0.5 44.2643L0 42.7746C13.4 37.1352 26 29.2613 38.2 21.4937C50.5 13.7262 63.3 5.63944 76.9 0L77.4 1.48967C63.9 7.12911 51.2 15.1095 39 22.877C26.7 30.5381 14 38.6249 0.5 44.2643Z" fill="#00A859"/>
<path d="M268.4 41.7106C238.3 41.7106 214.5 26.7076 191.4 12.1301C185.7 8.51237 179.9 4.89461 174 1.48967L174.7 0.106405C180.6 3.51135 186.5 7.23551 192.2 10.8533C215 25.2179 238.7 40.1145 268.4 40.1145C298.1 40.1145 321.8 25.2179 344.6 10.7469C350.3 7.12911 356.2 3.40495 362.1 0L362.8 1.38326C356.9 4.78821 351.1 8.51237 345.4 12.0237C322.3 26.7076 298.5 41.7106 268.4 41.7106Z" fill="#00A859"/>
<path d="M0.5 33.5174L0 32.0278C13.4 26.3883 26 18.5144 38.2 10.7469C43.9 7.12911 49.8 3.40495 55.7 0L56.4 1.38326C50.5 4.78821 44.7 8.51237 39 12.1301C26.7 19.8977 14 27.878 0.5 33.5174Z" fill="#00A859"/>
<path d="M268.4 30.9637C238.3 30.9637 214.5 15.9607 191.4 1.38326L192.2 0C215.1 14.471 238.7 29.3677 268.4 29.3677C298.1 29.3677 321.7 14.471 344.6 0L345.4 1.38326C322.3 15.9607 298.5 30.9637 268.4 30.9637Z" fill="#00A859"/>
<path d="M0.5 22.7706L0 21.2809C13.4 15.6415 26 7.76753 38.2 0L39 1.38326C26.7 9.15079 14 17.1311 0.5 22.7706Z" fill="#00A859"/>
<path d="M268.4 20.3226C244.5 20.3226 224.9 10.8526 208.9 1.48897L209.6 0.105713C225.4 9.25651 244.8 18.7265 268.4 18.7265C292 18.7265 311.4 9.25651 327.2 0.105713L327.9 1.48897C311.9 10.7462 292.3 20.3226 268.4 20.3226Z" fill="#00A859"/>
<path d="M0.5 12.1294L0 10.6398C6.4 7.97966 13 4.57471 20.8 0.105713L21.5 1.48897C13.7 5.95797 7 9.36292 0.5 12.1294Z" fill="#00A859"/>
<path d="M268.4 9.57641C255.7 9.57641 243.2 6.9163 230.1 1.48967L230.6 0C243.5 5.32023 255.9 7.98034 268.4 7.98034C280.9 7.98034 293.2 5.32023 306.2 0L306.7 1.48967C293.6 6.9163 281 9.57641 268.4 9.57641Z" fill="#00A859"/>
</mask>
<g mask="url(#mask0)">
<ellipse cx="193" cy="177.696" rx="96" ry="102.148" fill="#00A859"/>
</g>
</svg>
