<svg width="36" height="36" viewBox="0 0 36 36" fill="none" xmlns="http://www.w3.org/2000/svg">
<circle cx="18" cy="18" r="18" fill="#00A859" fill-opacity="0.1"/>
<g clip-path="url(#clip0)">
<path d="M21.5217 8.60864H14.4782C11.237 8.60864 8.60864 11.237 8.60864 14.4782V21.5217C8.60864 24.7629 11.237 27.3913 14.4782 27.3913H21.5217C24.7629 27.3913 27.3913 24.7629 27.3913 21.5217V14.4782C27.3913 11.237 24.7629 8.60864 21.5217 8.60864ZM25.6304 21.5217C25.6304 23.7873 23.7873 25.6304 21.5217 25.6304H14.4782C12.2126 25.6304 10.3695 23.7873 10.3695 21.5217V14.4782C10.3695 12.2126 12.2126 10.3695 14.4782 10.3695H21.5217C23.7873 10.3695 25.6304 12.2126 25.6304 14.4782V21.5217Z" fill="#076943"/>
<path d="M17.9999 13.3042C15.4067 13.3042 13.3042 15.4067 13.3042 17.9999C13.3042 20.593 15.4067 22.6955 17.9999 22.6955C20.593 22.6955 22.6955 20.593 22.6955 17.9999C22.6955 15.4067 20.593 13.3042 17.9999 13.3042ZM17.9999 20.9346C16.3822 20.9346 15.0651 19.6175 15.0651 17.9999C15.0651 16.381 16.3822 15.0651 17.9999 15.0651C19.6175 15.0651 20.9346 16.381 20.9346 17.9999C20.9346 19.6175 19.6175 20.9346 17.9999 20.9346Z" fill="#076943"/>
<path d="M23.0478 13.5778C23.3934 13.5778 23.6735 13.2977 23.6735 12.9521C23.6735 12.6065 23.3934 12.3264 23.0478 12.3264C22.7023 12.3264 22.4221 12.6065 22.4221 12.9521C22.4221 13.2977 22.7023 13.5778 23.0478 13.5778Z" fill="#076943"/>
</g>
<defs>
<clipPath id="clip0">
<rect width="18.7826" height="18.7826" fill="white" transform="translate(8.60864 8.60864)"/>
</clipPath>
</defs>
</svg>
