<svg width="36" height="36" viewBox="0 0 36 36" fill="none" xmlns="http://www.w3.org/2000/svg">
<ellipse cx="17.9253" cy="18.3841" rx="17.3627" ry="17.3978" fill="#FEFEFE"/>
<g clip-path="url(#clip0)">
<path d="M21.3224 9.30664H14.5283C11.4019 9.30664 8.86656 11.8471 8.86656 14.9798V21.7877C8.86656 24.9204 11.4019 27.4609 14.5283 27.4609H21.3224C24.4488 27.4609 26.9841 24.9204 26.9841 21.7877V14.9798C26.9841 11.8471 24.4488 9.30664 21.3224 9.30664ZM25.2856 21.7877C25.2856 23.9775 23.5078 25.7589 21.3224 25.7589H14.5283C12.3429 25.7589 10.5651 23.9775 10.5651 21.7877V14.9798C10.5651 12.79 12.3429 11.0086 14.5283 11.0086H21.3224C23.5078 11.0086 25.2856 12.79 25.2856 14.9798V21.7877Z" fill="#076943"/>
<path d="M17.9254 13.8452C15.424 13.8452 13.396 15.8774 13.396 18.3838C13.396 20.8902 15.424 22.9223 17.9254 22.9223C20.4267 22.9223 22.4548 20.8902 22.4548 18.3838C22.4548 15.8774 20.4267 13.8452 17.9254 13.8452ZM17.9254 21.2204C16.365 21.2204 15.0945 19.9473 15.0945 18.3838C15.0945 16.8191 16.365 15.5472 17.9254 15.5472C19.4857 15.5472 20.7562 16.8191 20.7562 18.3838C20.7562 19.9473 19.4857 21.2204 17.9254 21.2204Z" fill="#076943"/>
<path d="M22.7945 14.1094C23.1278 14.1094 23.398 13.8387 23.398 13.5047C23.398 13.1707 23.1278 12.8999 22.7945 12.8999C22.4611 12.8999 22.1909 13.1707 22.1909 13.5047C22.1909 13.8387 22.4611 14.1094 22.7945 14.1094Z" fill="#076943"/>
</g>
<defs>
<clipPath id="clip0">
<rect width="18.1176" height="18.1542" fill="white" transform="translate(8.86656 9.30664)"/>
</clipPath>
</defs>
</svg>
