<svg width="36" height="36" viewBox="0 0 36 36" fill="none" xmlns="http://www.w3.org/2000/svg">
<circle cx="18" cy="18" r="18" fill="#00A859" fill-opacity="0.1"/>
<g clip-path="url(#clip0)">
<path d="M25.8222 25.8259V25.8252H25.8261V20.0848C25.8261 17.2765 25.2215 15.1133 21.9385 15.1133C20.3602 15.1133 19.3011 15.9794 18.8687 16.8005H18.823V15.3755H15.7102V25.8252H18.9515V20.6509C18.9515 19.2885 19.2098 17.9711 20.8969 17.9711C22.5593 17.9711 22.5841 19.5259 22.5841 20.7383V25.8259H25.8222Z" fill="#076943"/>
<path d="M10.4321 15.3762H13.6773V25.826H10.4321V15.3762Z" fill="#076943"/>
<path d="M12.0534 10.1738C11.0158 10.1738 10.1738 11.0158 10.1738 12.0534C10.1738 13.091 11.0158 13.9506 12.0534 13.9506C13.091 13.9506 13.933 13.091 13.933 12.0534C13.9323 11.0158 13.0903 10.1738 12.0534 10.1738V10.1738Z" fill="#076943"/>
</g>
<defs>
<clipPath id="clip0">
<rect width="15.6522" height="15.6522" fill="white" transform="translate(10.1738 10.1738)"/>
</clipPath>
</defs>
</svg>
