<svg width="50" height="30" viewBox="0 0 50 30" fill="none" xmlns="http://www.w3.org/2000/svg">
<rect width="50" height="30" rx="5" fill="#00A859" fill-opacity="0.1"/>
<path fill-rule="evenodd" clip-rule="evenodd" d="M34.456 15.4292H16.024C15.4608 15.4292 15 15.0676 15 14.6256C15 14.1836 15.4608 13.8219 16.024 13.8219H34.456C35.0192 13.8219 35.48 14.1836 35.48 14.6256C35.48 15.0676 35.0192 15.4292 34.456 15.4292ZM34.456 10.6073H16.024C15.4608 10.6073 15 10.2457 15 9.80365C15 9.36164 15.4608 9 16.024 9H34.456C35.0192 9 35.48 9.36164 35.48 9.80365C35.48 10.2457 35.0192 10.6073 34.456 10.6073ZM16.024 18.6439H34.456C35.0192 18.6439 35.48 19.0055 35.48 19.4475C35.48 19.8895 35.0192 20.2512 34.456 20.2512H16.024C15.4608 20.2512 15 19.8895 15 19.4475C15 19.0055 15.4608 18.6439 16.024 18.6439Z" fill="#076943"/>
</svg>
