<svg width="75" height="75" viewBox="0 0 75 75" fill="none" xmlns="http://www.w3.org/2000/svg">
<rect width="75" height="75" rx="5" fill="#00A859" fill-opacity="0.1"/>
<path d="M53.3531 16.4754L35.6378 12L34.2894 19.0636H21.9678V42.8427C22.2468 42.7888 22.5722 42.7888 22.8977 42.7888C23.2697 42.7888 23.5952 42.7888 23.9671 42.8427V21.3822H38.7531V29.7399H45.9601V53.519H32.3831C32.3831 53.6269 32.3831 53.7347 32.3831 53.8425C32.3831 54.5435 32.3366 55.1366 32.1971 55.7837H47.8665V52.6024L54.283 54.22L59.3047 27.1517L53.3531 16.4754ZM53.2136 20.4116L56.1429 25.7498L52.3767 24.7792L53.2136 20.4116ZM40.706 27.4753V22.9998L44.5652 27.4753H40.706ZM52.7951 51.5239L47.913 50.3377V46.024L49.8658 46.5093L50.2843 44.2446L47.913 43.6515V39.3378L51.0283 40.1467L51.4467 37.882L47.913 37.0193V32.7056L52.2372 33.784L52.6556 31.5193L47.913 30.3331V28.1223L40.1015 19.0636H36.3353L37.1257 14.696L51.5862 18.3087L50.0518 26.5047L57.1193 28.2841L52.7951 51.5239Z" fill="#00A859"/>
<path d="M42.1473 46.9945H30.3372C30.8021 47.6955 31.2206 48.4504 31.5461 49.2593H42.1473V46.9945Z" fill="#00A859"/>
<path d="M42.1475 40.4701H27.7334V42.7349H42.1475V40.4701Z" fill="#00A859"/>
<path d="M30.709 33.6761C30.523 33.4604 30.3835 33.2447 30.3835 32.9751L28.9886 33.1908C29.0816 33.8379 29.3606 34.431 29.8256 34.9163C30.1045 35.1859 30.4765 35.4016 30.8485 35.5094V37.0731H32.2434V35.5633C32.7083 35.4555 33.1268 35.1859 33.4523 34.8624L33.4988 34.8084C34.0567 34.1614 34.3357 33.2987 34.2892 32.382C34.2427 31.5193 33.8707 30.7105 33.2663 30.1712C32.7083 29.686 32.1504 29.5242 31.6854 29.4163C31.2204 29.3085 30.988 29.2007 30.7555 28.9311C30.523 28.6615 30.3835 28.3379 30.3835 28.0683C30.3835 27.7987 30.523 27.583 30.6625 27.4213C31.1275 26.9899 31.9179 26.9899 32.3829 27.4752C32.4758 27.583 32.5223 27.6909 32.5688 27.7987L34.0102 27.5291C33.8707 27.0438 33.6382 26.6125 33.3128 26.235C32.9873 25.9115 32.5688 25.6419 32.1504 25.534V23.9703H30.7555V25.534C30.3835 25.6419 30.0115 25.8576 29.7326 26.1272C29.7326 26.1272 29.7326 26.1272 29.6861 26.1811L29.6396 26.235C29.1746 26.7203 28.8956 27.3674 28.8956 28.0144C28.8491 28.7693 29.1281 29.4703 29.6396 30.0634C30.151 30.6565 30.7555 30.8183 31.2669 30.9801C31.6389 31.0879 31.9644 31.1957 32.2899 31.4653C32.5688 31.681 32.7083 32.0585 32.7548 32.4359C32.8013 32.8673 32.6153 33.2987 32.3364 33.5683C32.0109 34.1614 31.174 34.1614 30.709 33.6761Z" fill="#00A859"/>
<path d="M22.8976 44.8916C18.62 44.8916 15.1792 48.8818 15.1792 53.8425C15.1792 58.8033 18.62 62.7935 22.8976 62.7935C27.1753 62.7935 30.6161 58.8033 30.6161 53.8425C30.6161 48.8818 27.1288 44.8916 22.8976 44.8916ZM26.2454 52.1171L22.7117 56.97C22.5722 57.1856 22.3397 57.2935 22.1072 57.2935C21.8747 57.2935 21.6887 57.1856 21.5027 56.97L19.5034 54.1661C19.2244 53.7886 19.2709 53.2494 19.5964 52.9259C19.9219 52.6023 20.3868 52.6563 20.6658 53.0337L22.1072 55.0288L25.0365 50.9847C25.3155 50.6073 25.7804 50.5533 26.1059 50.8769C26.4779 51.2004 26.5244 51.7396 26.2454 52.1171Z" fill="#00A859"/>
</svg>
