<svg width="75" height="75" viewBox="0 0 75 75" fill="none" xmlns="http://www.w3.org/2000/svg">
<rect width="75" height="75" rx="5" fill="#00A859" fill-opacity="0.1"/>
<path d="M22.2001 22.2051C21.7291 23.8837 21.2342 25.6503 20.7375 27.4231C19.1761 27.4198 17.485 27.4269 16 27.4275C17.2827 28.5085 18.6005 29.6204 19.8276 30.6552C19.347 32.3756 18.8232 34.242 18.3649 35.8771C19.5925 34.8384 20.8975 33.748 22.1973 32.6527C23.5716 33.8091 24.7726 34.8208 26.0249 35.8771C25.55 34.1875 25.059 32.4324 24.5622 30.6552C25.8264 29.5934 27.1941 28.4414 28.3946 27.4275C26.8099 27.4275 25.1003 27.428 23.6604 27.4275" fill="#00A859"/>
<path d="M37.3681 22.2051C36.897 23.8837 36.4022 25.6503 35.9055 27.4231C34.344 27.4198 32.6529 27.4269 31.168 27.4275C32.4506 28.5085 33.7685 29.6204 34.9956 30.6552C34.515 32.3756 33.9912 34.242 33.5329 35.8771C34.7605 34.8384 36.0655 33.748 37.3653 32.6527C38.7396 33.8091 39.9406 34.8208 41.1929 35.8771C40.718 34.1875 40.2269 32.4324 39.7302 30.6552C40.9944 29.5934 42.362 28.4414 43.5626 27.4275C41.9779 27.4275 40.2683 27.428 38.8284 27.4275" fill="#00A859"/>
<path d="M52.5379 22.2051C52.0668 23.8837 51.572 25.6503 51.0753 27.4231C49.5138 27.4198 47.8227 27.4269 46.3378 27.4275C47.6204 28.5085 48.9383 29.6204 50.1654 30.6552C49.6848 32.3756 49.161 34.242 48.7027 35.8771C49.9303 34.8384 51.2353 33.748 52.5351 32.6527C53.9094 33.8091 55.1104 34.8208 56.3627 35.8771C55.8878 34.1875 55.3967 32.4324 54.9 30.6552C56.1642 29.5934 57.5318 28.4414 58.7324 27.4275C57.1477 27.4275 55.4381 27.428 53.9982 27.4275" fill="#00A859"/>
<path d="M29.7841 37.8981C29.313 39.5767 28.8182 41.3434 28.3215 43.1161C26.76 43.1128 25.069 43.12 23.584 43.1205C24.8667 44.2016 26.1845 45.3135 27.4116 46.3483C26.931 48.0687 26.4072 49.9351 25.9489 51.5702C27.1765 50.5315 28.4815 49.4411 29.7813 48.3457C31.1556 49.5022 32.3566 50.5139 33.6089 51.5702C33.134 49.8806 32.643 48.1255 32.1462 46.3483C33.4104 45.2865 34.7781 44.1344 35.9786 43.1205C34.3939 43.1205 32.6843 43.1211 31.2444 43.1205" fill="#00A859"/>
<path d="M44.953 37.8981C44.4819 39.5767 43.987 41.3434 43.4903 43.1161C41.9289 43.1128 40.2378 43.12 38.7528 43.1205C40.0355 44.2016 41.3533 45.3135 42.5804 46.3483C42.0998 48.0687 41.576 49.9351 41.1178 51.5702C42.3453 50.5315 43.6503 49.4411 44.9501 48.3457C46.3244 49.5022 47.5254 50.5139 48.7777 51.5702C48.3028 49.8806 47.8118 48.1255 47.315 46.3483C48.5792 45.2865 49.9469 44.1344 51.1474 43.1205C49.5627 43.1205 47.8531 43.1211 46.4132 43.1205" fill="#00A859"/>
</svg>
