<svg width="36" height="36" viewBox="0 0 36 36" fill="none" xmlns="http://www.w3.org/2000/svg">
<circle cx="18" cy="18" r="18" fill="#00A859" fill-opacity="0.1"/>
<path d="M27.505 11.9129C26.7797 12.2374 26.0068 12.4524 25.201 12.5568C26.0299 12.0522 26.6626 11.2591 26.9601 10.3033C26.1872 10.7731 25.3339 11.105 24.4244 11.2902C23.6906 10.4935 22.6446 10 21.5036 10C19.2897 10 17.5075 11.8321 17.5075 14.0782C17.5075 14.4014 17.5343 14.7121 17.6001 15.008C14.2757 14.8426 11.3341 13.2181 9.35804 10.7433C9.01304 11.3536 8.81068 12.0522 8.81068 12.8042C8.81068 14.2162 9.52383 15.4679 10.5869 16.1925C9.94441 16.1801 9.31415 15.9899 8.7802 15.6903C8.7802 15.7028 8.7802 15.7189 8.7802 15.7351C8.7802 17.7164 10.1663 19.3621 11.9839 19.7412C11.6584 19.8319 11.3037 19.8754 10.9355 19.8754C10.6795 19.8754 10.4211 19.8605 10.1785 19.8058C10.6966 21.4205 12.1668 22.6075 13.9149 22.646C12.5544 23.7312 10.827 24.385 8.95696 24.385C8.62904 24.385 8.31452 24.37 8 24.329C9.7713 25.4937 11.8705 26.1587 14.1343 26.1587C21.4926 26.1587 25.5155 19.9438 25.5155 14.5568C25.5155 14.3765 25.5094 14.2025 25.5009 14.0297C26.2945 13.4555 26.9613 12.7383 27.505 11.9129Z" fill="#076943"/>
</svg>
