<svg width="75" height="75" viewBox="0 0 75 75" fill="none" xmlns="http://www.w3.org/2000/svg">
<rect width="75" height="75" rx="5" fill="#00A859" fill-opacity="0.1"/>
<path d="M49 29.1631H17C16.7348 29.1631 16.4804 29.2853 16.2929 29.5027C16.1054 29.7202 16 30.0152 16 30.3228V53.5161C16 53.8237 16.1054 54.1186 16.2929 54.3361C16.4804 54.5536 16.7348 54.6758 17 54.6758H49C49.2652 54.6758 49.5196 54.5536 49.7071 54.3361C49.8946 54.1186 50 53.8237 50 53.5161V30.3228C50 30.0152 49.8946 29.7202 49.7071 29.5027C49.5196 29.2853 49.2652 29.1631 49 29.1631ZM44.1 52.3564H21.9C21.704 51.2421 21.2298 50.2192 20.5364 49.4151C19.8429 48.6109 18.9609 48.061 18 47.8337V36.0051C18.9609 35.7779 19.8429 35.2279 20.5364 34.4238C21.2298 33.6196 21.704 32.5967 21.9 31.4824H44.1C44.296 32.5967 44.7702 33.6196 45.4636 34.4238C46.1571 35.2279 47.0391 35.7779 48 36.0051V47.8337C47.0391 48.061 46.1571 48.6109 45.4636 49.4151C44.7702 50.2192 44.296 51.2421 44.1 52.3564ZM48 33.593C47.5806 33.4199 47.1997 33.1406 46.8849 32.7756C46.5701 32.4105 46.3293 31.9688 46.18 31.4824H48V33.593ZM19.82 31.4824C19.6707 31.9688 19.4299 32.4105 19.1151 32.7756C18.8003 33.1406 18.4194 33.4199 18 33.593V31.4824H19.82ZM18 50.2458C18.4194 50.419 18.8003 50.6982 19.1151 51.0633C19.4299 51.4284 19.6707 51.8701 19.82 52.3564H18V50.2458ZM46.18 52.3564C46.3293 51.8701 46.5701 51.4284 46.8849 51.0633C47.1997 50.6982 47.5806 50.419 48 50.2458V52.3564H46.18ZM54 25.6841V48.8774C54 49.185 53.8946 49.48 53.7071 49.6975C53.5196 49.9149 53.2652 50.0371 53 50.0371C52.7348 50.0371 52.4804 49.9149 52.2929 49.6975C52.1054 49.48 52 49.185 52 48.8774V26.8438H21C20.7348 26.8438 20.4804 26.7216 20.2929 26.5041C20.1054 26.2866 20 25.9916 20 25.6841C20 25.3765 20.1054 25.0816 20.2929 24.8641C20.4804 24.6466 20.7348 24.5244 21 24.5244H53C53.2652 24.5244 53.5196 24.6466 53.7071 24.8641C53.8946 25.0816 54 25.3765 54 25.6841ZM58 21.0454V44.2388C58 44.5463 57.8946 44.8413 57.7071 45.0588C57.5196 45.2763 57.2652 45.3984 57 45.3984C56.7348 45.3984 56.4804 45.2763 56.2929 45.0588C56.1054 44.8413 56 44.5463 56 44.2388V22.2051H25C24.7348 22.2051 24.4804 22.0829 24.2929 21.8654C24.1054 21.6479 24 21.353 24 21.0454C24 20.7378 24.1054 20.4429 24.2929 20.2254C24.4804 20.0079 24.7348 19.8857 25 19.8857H57C57.2652 19.8857 57.5196 20.0079 57.7071 20.2254C57.8946 20.4429 58 20.7378 58 21.0454ZM33 36.1211C32.0111 36.1211 31.0444 36.4612 30.2221 37.0983C29.3999 37.7354 28.759 38.641 28.3806 39.7005C28.0022 40.76 27.9031 41.9259 28.0961 43.0506C28.289 44.1754 28.7652 45.2086 29.4645 46.0195C30.1637 46.8304 31.0546 47.3826 32.0245 47.6064C32.9945 47.8301 33.9998 47.7153 34.9134 47.2764C35.827 46.8375 36.6079 46.0944 37.1573 45.1408C37.7068 44.1873 38 43.0662 38 41.9194C38 40.3816 37.4732 38.9068 36.5355 37.8194C35.5979 36.732 34.3261 36.1211 33 36.1211ZM33 45.3984C32.4067 45.3984 31.8266 45.1944 31.3333 44.8121C30.8399 44.4298 30.4554 43.8865 30.2284 43.2508C30.0013 42.6151 29.9419 41.9156 30.0576 41.2407C30.1734 40.5659 30.4591 39.946 30.8787 39.4594C31.2982 38.9729 31.8328 38.6415 32.4147 38.5073C32.9967 38.373 33.5999 38.4419 34.1481 38.7053C34.6962 38.9686 35.1648 39.4145 35.4944 39.9866C35.8241 40.5587 36 41.2314 36 41.9194C36 42.8421 35.6839 43.727 35.1213 44.3795C34.5587 45.0319 33.7956 45.3984 33 45.3984Z" fill="#00A859"/>
</svg>
